<?xml version="1.0" encoding="UTF-8"?>
<svg version="1.1" xmlns="http://www.w3.org/2000/svg" width="1366" height="768">
<path d="M0 0 C450.78 0 901.56 0 1366 0 C1366 253.44 1366 506.88 1366 768 C915.22 768 464.44 768 0 768 C0 514.56 0 261.12 0 0 Z " fill="#3A3A3A" transform="translate(0,0)"/>
<path d="M0 0 C6.93 0 13.86 0 21 0 C21 0.66 21 1.32 21 2 C22.98 2 24.96 2 27 2 C27 2.66 27 3.32 27 4 C28.32 4 29.64 4 31 4 C31 4.66 31 5.32 31 6 C32.32 6 33.64 6 35 6 C35 6.66 35 7.32 35 8 C36.32 8 37.64 8 39 8 C39 8.66 39 9.32 39 10 C39.66 10 40.32 10 41 10 C41 10.66 41 11.32 41 12 C41.66 12 42.32 12 43 12 C43 12.66 43 13.32 43 14 C45.64 14 48.28 14 51 14 C51 13.34 51 12.68 51 12 C52.32 12 53.64 12 55 12 C55 11.34 55 10.68 55 10 C56.98 10 58.96 10 61 10 C61 9.34 61 8.68 61 8 C62.32 8 63.64 8 65 8 C65 7.34 65 6.68 65 6 C69.62 6 74.24 6 79 6 C80.57170996 9.14341993 80.23175783 12.55771451 80 16 C79.67 16.99 79.34 17.98 79 19 C78.34 19 77.68 19 77 19 C77.33 19.66 77.66 20.32 78 21 C78.1875 24 78.1875 24 78 27 C75.23776722 29.76223278 72.79293383 29.57856291 69 30 C69 30.66 69 31.32 69 32 C68.34 32 67.68 32 67 32 C67 32.66 67 33.32 67 34 C65.68 34.33 64.36 34.66 63 35 C63 35.66 63 36.32 63 37 C62.34 37 61.68 37 61 37 C61 37.66 61 38.32 61 39 C60.34 39 59.68 39 59 39 C59 40.98 59 42.96 59 45 C59.66 45 60.32 45 61 45 C61 46.98 61 48.96 61 51 C60.34 51 59.68 51 59 51 C59 54.96 59 58.92 59 63 C58.34 63 57.68 63 57 63 C57 64.32 57 65.64 57 67 C56.34 67 55.68 67 55 67 C55 68.98 55 70.96 55 73 C54.34 73 53.68 73 53 73 C53 73.66 53 74.32 53 75 C52.34 75 51.68 75 51 75 C51 75.66 51 76.32 51 77 C50.34 77 49.68 77 49 77 C49 77.99 49 78.98 49 80 C48.34 80 47.68 80 47 80 C47 80.66 47 81.32 47 82 C46.34 82 45.68 82 45 82 C45 82.66 45 83.32 45 84 C44.34 84 43.68 84 43 84 C43 84.66 43 85.32 43 86 C42.34 86 41.68 86 41 86 C41 86.66 41 87.32 41 88 C39.68 88 38.36 88 37 88 C37 88.66 37 89.32 37 90 C36.34 90 35.68 90 35 90 C35 90.66 35 91.32 35 92 C33.68 92 32.36 92 31 92 C31 92.66 31 93.32 31 94 C29.68 94 28.36 94 27 94 C27 94.66 27 95.32 27 96 C25.865625 96.144375 24.73125 96.28875 23.5625 96.4375 C20.19222799 96.61171478 20.19222799 96.61171478 19 98 C16.13732433 98.07325168 13.299281 98.09238205 10.4375 98.0625 C9.63119141 98.05798828 8.82488281 98.05347656 7.99414062 98.04882812 C5.99606244 98.03700518 3.99802217 98.01906914 2 98 C2 97.34 2 96.68 2 96 C0.02 96 -1.96 96 -4 96 C-4 95.34 -4 94.68 -4 94 C-5.98 94 -7.96 94 -10 94 C-10 93.34 -10 92.68 -10 92 C-12.64 92 -15.28 92 -18 92 C-18 92.66 -18 93.32 -18 94 C-19.32 94 -20.64 94 -22 94 C-22 94.66 -22 95.32 -22 96 C-23.32 96 -24.64 96 -26 96 C-26 96.66 -26 97.32 -26 98 C-27.98 98 -29.96 98 -32 98 C-32 98.66 -32 99.32 -32 100 C-33.32 100 -34.64 100 -36 100 C-36 100.66 -36 101.32 -36 102 C-37.7015625 102.2165625 -37.7015625 102.2165625 -39.4375 102.4375 C-42.80777201 102.61171478 -42.80777201 102.61171478 -44 104 C-45.66617115 104.04063832 -47.33388095 104.042721 -49 104 C-49.66 102.68 -50.32 101.36 -51 100 C-51.66 100 -52.32 100 -53 100 C-53 97.69 -53 95.38 -53 93 C-52.34 93 -51.68 93 -51 93 C-50.67 91.68 -50.34 90.36 -50 89 C-50.66 89 -51.32 89 -52 89 C-52 86.69 -52 84.38 -52 82 C-51.34 82 -50.68 82 -50 82 C-50 80.68 -50 79.36 -50 78 C-48.68 78 -47.36 78 -46 78 C-46 77.34 -46 76.68 -46 76 C-43.36 76.33 -40.72 76.66 -38 77 C-38 76.34 -38 75.68 -38 75 C-37.34 75 -36.68 75 -36 75 C-36 74.34 -36 73.68 -36 73 C-35.34 73 -34.68 73 -34 73 C-34 71.02 -34 69.04 -34 67 C-34.66 67 -35.32 67 -36 67 C-36 65.68 -36 64.36 -36 63 C-36.66 63 -37.32 63 -38 63 C-38 54.09 -38 45.18 -38 36 C-37.34 36 -36.68 36 -36 36 C-36 34.02 -36 32.04 -36 30 C-35.34 30 -34.68 30 -34 30 C-34 28.68 -34 27.36 -34 26 C-33.34 26 -32.68 26 -32 26 C-32 25.34 -32 24.68 -32 24 C-31.34 24 -30.68 24 -30 24 C-30 22.68 -30 21.36 -30 20 C-29.34 20 -28.68 20 -28 20 C-28 19.34 -28 18.68 -28 18 C-27.34 18 -26.68 18 -26 18 C-26 17.34 -26 16.68 -26 16 C-25.34 16 -24.68 16 -24 16 C-24 15.34 -24 14.68 -24 14 C-23.34 14 -22.68 14 -22 14 C-22 13.34 -22 12.68 -22 12 C-21.34 12 -20.68 12 -20 12 C-20 11.34 -20 10.68 -20 10 C-19.34 10 -18.68 10 -18 10 C-18 9.34 -18 8.68 -18 8 C-16.68 8 -15.36 8 -14 8 C-14 7.34 -14 6.68 -14 6 C-12.68 6 -11.36 6 -10 6 C-10 5.34 -10 4.68 -10 4 C-8.68 4 -7.36 4 -6 4 C-6 3.34 -6 2.68 -6 2 C-4.02 2 -2.04 2 0 2 C0 1.34 0 0.68 0 0 Z " fill="#F6F6F6" transform="translate(63,15)"/>
<path d="M0 0 C1.1125279 -0.00891337 1.1125279 -0.00891337 2.24753112 -0.0180068 C4.73397006 -0.03535655 7.22021614 -0.03839513 9.70671082 -0.04138184 C11.48902802 -0.05063988 13.27134127 -0.06068944 15.0536499 -0.07147217 C19.89670229 -0.09770695 24.73969925 -0.11060728 29.58281159 -0.11949348 C32.60879083 -0.12535671 35.63475493 -0.13356663 38.66072655 -0.14250183 C48.12901324 -0.16984741 57.59726533 -0.18918318 67.06558877 -0.19690561 C77.99432416 -0.20586827 88.9225594 -0.24097188 99.8511427 -0.2989068 C108.29968091 -0.34213947 116.74807838 -0.36231407 125.19672602 -0.36498785 C130.24239783 -0.36708391 135.28759936 -0.37889729 140.33315468 -0.41462708 C145.08002617 -0.4475882 149.82607387 -0.45190108 154.57301903 -0.43434906 C156.31327903 -0.43280825 158.05358331 -0.44149525 159.79373169 -0.46126556 C174.57859706 -0.61936408 174.57859706 -0.61936408 179.18405151 3.13793945 C183.77140923 8.96894685 182.91110124 14.95965279 182.96916199 22.09338379 C182.99816589 23.26965332 183.0271698 24.44592285 183.05705261 25.65783691 C183.13697764 36.53378927 183.13697764 36.53378927 178.65666199 41.28088379 C175.15760399 44.66779398 171.90827241 44.70862932 167.26190186 44.66856384 C166.5147219 44.67394938 165.76754195 44.67933492 164.99772018 44.68488365 C162.49267219 44.69919746 159.98815007 44.69205125 157.483078 44.68493652 C155.68766352 44.69063832 153.89225266 44.69760183 152.09684753 44.70573425 C147.21875296 44.723702 142.34083791 44.72249048 137.46272016 44.71679187 C133.39200984 44.71370521 129.32133427 44.71978665 125.25062889 44.72583061 C115.64823237 44.73988614 106.04592479 44.73830603 96.44352722 44.72692871 C86.53346362 44.7154464 76.6236706 44.72952275 66.71364266 44.75632519 C58.208227 44.77846843 49.70289636 44.78512267 41.19745392 44.77924877 C36.11620509 44.77587471 31.03512973 44.77832409 25.95390511 44.7954998 C21.17596128 44.81094493 16.39841886 44.80704048 11.62049103 44.78819466 C9.86651373 44.78450201 8.11250684 44.78763687 6.35855675 44.79808044 C3.96470797 44.81124638 1.5721967 44.79978321 -0.82159424 44.78208923 C-1.51634509 44.79169424 -2.21109594 44.80129925 -2.92689985 44.81119531 C-7.65034799 44.73931795 -10.02384777 43.60947245 -13.34333801 40.28088379 C-16.45240529 34.59111436 -15.71166593 28.15184007 -15.71833801 21.84338379 C-15.75507629 20.02097168 -15.75507629 20.02097168 -15.79255676 18.16174316 C-15.82968179 6.86954769 -15.82968179 6.86954769 -11.34333801 2.28088379 C-7.7571802 -0.1198009 -4.17142185 -0.01045056 0 0 Z " fill="#FEFEFE" transform="translate(1094.3433380126953,50.7191162109375)"/>
<path d="M0 0 C14.85 0 29.7 0 45 0 C45 55.11 45 110.22 45 167 C30.15 167 15.3 167 0 167 C0 111.89 0 56.78 0 0 Z " fill="#FCFCFC" transform="translate(849,356)"/>
<path d="M0 0 C1.34788101 -0.01702469 1.34788101 -0.01702469 2.72299194 -0.03439331 C4.19043098 -0.02999741 4.19043098 -0.02999741 5.68751526 -0.0255127 C6.72369995 -0.03398224 7.75988464 -0.04245178 8.82746887 -0.05117798 C12.25563298 -0.07459356 15.68334947 -0.07556904 19.11158752 -0.07434082 C21.49286072 -0.08143949 23.87413221 -0.08913806 26.25540161 -0.09741211 C31.24795791 -0.11086734 36.24035605 -0.11242088 41.23292542 -0.10656738 C47.6335461 -0.10066969 54.0334087 -0.13126191 60.43388271 -0.17168427 C65.35209244 -0.197522 70.27011867 -0.20044222 75.18838692 -0.1967926 C77.54832426 -0.19848744 79.90826976 -0.20816474 82.26814079 -0.22593689 C85.56730402 -0.24804851 88.86492025 -0.23846313 92.16407776 -0.2208252 C93.14034622 -0.23408844 94.11661469 -0.24735168 95.12246704 -0.26101685 C99.71080159 -0.20396191 101.79634735 -0.14588498 105.51089478 2.74536133 C110.39034595 9.27491588 109.85746685 14.21611057 109.86549377 22.20690918 C109.88998596 23.47856934 109.91447815 24.75022949 109.93971252 26.0604248 C109.9725845 36.51919069 109.9725845 36.51919069 107.77955627 40.09362793 C103.18041381 44.71631549 99.71575024 45.7408403 93.34617615 45.83432007 C92.40267303 45.83296051 91.45916992 45.83160095 90.48707581 45.8302002 C89.48321838 45.84027603 88.47936096 45.85035187 87.44508362 45.86073303 C84.12937763 45.88921005 80.81412691 45.89508947 77.49830627 45.89831543 C75.19051425 45.90795649 72.88272408 45.91804897 70.57493591 45.92857361 C65.73798878 45.94653422 60.90120237 45.95209467 56.06422424 45.95031738 C49.87109111 45.9500125 43.67898974 45.99097378 37.48610115 46.04263401 C32.71964296 46.0760161 27.9534337 46.08207438 23.18687057 46.0804882 C20.90392881 46.08402507 18.62098037 46.09727657 16.33815384 46.12048531 C13.14227097 46.14993568 9.94862089 46.14123681 6.75270081 46.12316895 C5.34351883 46.14845673 5.34351883 46.14845673 3.90586853 46.17425537 C-1.82972579 46.09200328 -4.94765752 45.03226481 -9.14372444 41.07191372 C-13.68937451 35.48877539 -12.87698751 29.39903275 -12.88450623 22.51940918 C-12.90899841 21.34765137 -12.9334906 20.17589355 -12.95872498 18.96862793 C-12.99551798 8.163748 -12.99551798 8.163748 -8.50950623 3.39440918 C-5.60945092 0.8597539 -3.84855733 0.01842426 0 0 Z " fill="#FCFCFC" transform="translate(937.5095062255859,661.6055908203125)"/>
<path d="M0 0 C1.49356522 -0.00788544 1.49356522 -0.00788544 3.01730347 -0.01593018 C6.30539688 -0.02912273 9.59300526 -0.02039381 12.88110352 -0.01025391 C15.16886996 -0.01227501 17.45663578 -0.01518675 19.74440002 -0.01895142 C24.53848404 -0.02337391 29.33240033 -0.01694656 34.12646484 -0.00292969 C40.26784099 0.01415229 46.40882353 0.00432653 52.5501852 -0.01364708 C57.27455096 -0.02449507 61.99882363 -0.0210337 66.72319221 -0.0132637 C68.98738718 -0.01126401 71.25159062 -0.01371284 73.51577568 -0.02070236 C76.6826193 -0.02833224 79.84882854 -0.01669007 83.015625 0 C83.94932419 -0.00607269 84.88302338 -0.01214539 85.84501648 -0.0184021 C91.87343471 0.04037214 96.38073774 0.81248533 100.91821289 5.15429688 C103.28578952 9.73621866 102.59018484 15.12881955 102.57348633 20.17773438 C102.57251565 22.25060734 102.61411393 24.31975275 102.65844727 26.39208984 C102.68032271 37.55950325 102.68032271 37.55950325 99.79125977 41.20849609 C96.09255527 44.17383677 93.49427204 45.63265863 88.72831726 45.66233826 C87.86627686 45.67231339 87.00423645 45.68228851 86.11607361 45.69256592 C85.17832596 45.69323059 84.24057831 45.69389526 83.27441406 45.69458008 C82.28045624 45.70290359 81.28649841 45.71122711 80.26242065 45.71980286 C76.97381685 45.74391446 73.68541137 45.75267666 70.39672852 45.75927734 C68.10992879 45.76824308 65.82312968 45.77736491 63.53633118 45.78663635 C58.74051487 45.80313227 53.94476843 45.81082753 49.14892578 45.8137207 C43.00859519 45.81910375 36.86892268 45.85677881 30.72877789 45.90246487 C26.00437533 45.93223224 21.28013126 45.93944421 16.55564308 45.94044685 C14.29224446 45.94465008 12.02884541 45.95708836 9.76553917 45.9779644 C6.59613277 46.00486967 3.42825199 46.00005495 0.25878906 45.98754883 C-0.67288589 46.00238312 -1.60456085 46.01721741 -2.56446838 46.03250122 C-8.94689723 45.96091506 -12.12770007 44.64022381 -16.92749023 40.38818359 C-20.08000492 34.95849051 -19.29577863 28.54817343 -19.30249023 22.45068359 C-19.32698242 21.2834375 -19.35147461 20.11619141 -19.37670898 18.91357422 C-19.41389943 8.03536855 -19.41389943 8.03536855 -14.92749023 3.38818359 C-10.24448157 -0.37177566 -5.73393177 -0.03721229 0 0 Z " fill="#FDFDFD" transform="translate(1250.927490234375,233.61181640625)"/>
<path d="M0 0 C1.17175781 -0.02449219 2.34351563 -0.04898437 3.55078125 -0.07421875 C11.39896434 -0.10094355 15.14284299 0.44038219 20.74571228 5.97636414 C22.78121458 9.51618309 22.56741274 13.00449645 22.56079102 16.97973633 C22.57086685 17.84689774 22.58094269 18.71405914 22.59132385 19.60749817 C22.6198193 22.47414039 22.62568147 25.34025621 22.62890625 28.20703125 C22.63854728 30.20236935 22.64863976 32.19770531 22.65916443 34.19303894 C22.6771305 38.37687087 22.68268507 42.56051698 22.6809082 46.74438477 C22.68060357 52.097983 22.72153609 57.45038545 22.77322483 62.80370045 C22.80663299 66.92593321 22.81266438 71.0478785 22.81107903 75.17023277 C22.81461308 77.14336959 22.82784893 79.11651433 22.85107613 81.08951759 C22.88057631 83.85454826 22.87180983 86.61700521 22.85375977 89.38208008 C22.87061829 90.19219543 22.88747681 91.00231079 22.90484619 91.8369751 C22.8143388 97.31135042 21.36515575 100.09152034 17.60719204 104.06225109 C13.09342999 108.06000311 6.04639117 106.64504947 0.375 106.6875 C-0.90117188 106.71650391 -2.17734375 106.74550781 -3.4921875 106.77539062 C-14.02891071 106.84688196 -14.02891071 106.84688196 -17.640625 104.60546875 C-21.59650478 100.65650484 -22.10600639 97.77749383 -22.17938232 92.15788269 C-22.180047 91.32920181 -22.18071167 90.50052094 -22.18139648 89.64672852 C-22.18972 88.76660095 -22.19804352 87.88647339 -22.20661926 86.97967529 C-22.23070976 84.0710406 -22.23948951 81.16263011 -22.24609375 78.25390625 C-22.25505963 76.23135816 -22.26418147 74.20881075 -22.27345276 72.18626404 C-22.2899419 67.94699491 -22.29764295 63.70780477 -22.30053711 59.46850586 C-22.30592589 54.03641612 -22.34362692 48.60506825 -22.38928127 43.17318821 C-22.41901986 38.99616278 -22.42625995 34.81931685 -22.42726326 30.64219475 C-22.43147063 28.63950128 -22.44392559 26.63680752 -22.46478081 24.63421822 C-22.49163343 21.83314471 -22.48688859 19.03380245 -22.47436523 16.23266602 C-22.48919952 15.40600937 -22.50403381 14.57935272 -22.51931763 13.72764587 C-22.46452421 9.42448333 -22.27280119 7.86452473 -19.45915222 4.40211487 C-13.19644986 -0.51060543 -7.77460578 0.00849684 0 0 Z " fill="#FEFEFE" transform="translate(1177.875,355.625)"/>
<path d="M0 0 C1.26714844 -0.02449219 2.53429688 -0.04898438 3.83984375 -0.07421875 C15.47712368 -0.11092941 15.47712368 -0.11092941 20.125 4.375 C22.70679701 8.24769552 22.42780139 11.48074368 22.43139648 15.97387695 C22.43972 16.8522522 22.44804352 17.73062744 22.45661926 18.63562012 C22.48075149 21.54488536 22.48949574 24.45392647 22.49609375 27.36328125 C22.50505833 29.38486296 22.51418014 31.40644397 22.52345276 33.42802429 C22.53995456 37.66907362 22.54764492 41.9100439 22.55053711 46.15112305 C22.55591906 51.58202298 22.59358652 57.01217845 22.63928127 62.44286823 C22.66904593 66.61993613 22.67626056 70.79682475 22.67726326 74.97398949 C22.6814675 76.97585646 22.69390993 78.97772388 22.71478081 80.97948647 C22.74167987 83.78285803 22.73687401 86.58450411 22.72436523 89.38793945 C22.73919952 90.21257187 22.75403381 91.03720428 22.76931763 91.88682556 C22.71683298 96.02382863 22.35680341 98.60022696 19.71253967 101.87419128 C14.71398242 106.70520342 9.00523376 105.63267992 2.43139648 105.67016602 C0.33054948 105.68735234 -1.76871201 105.73123599 -3.86914062 105.77539062 C-5.21092595 105.78552052 -6.55272464 105.7940357 -7.89453125 105.80078125 C-9.11245361 105.81536377 -10.33037598 105.82994629 -11.58520508 105.8449707 C-15.52988533 105.28144495 -17.10205186 104.1918699 -19.875 101.375 C-22.54054201 97.54835776 -22.17055005 93.32602657 -22.16552734 88.84619141 C-22.17224457 87.98717728 -22.17896179 87.12816315 -22.18588257 86.24311829 C-22.20487586 83.40420747 -22.20878743 80.5655329 -22.2109375 77.7265625 C-22.21736448 75.75125023 -22.22409277 73.77593892 -22.23110962 71.80062866 C-22.2430857 67.65970655 -22.2467901 63.51886789 -22.24560547 59.37792969 C-22.24540226 54.07607107 -22.27270521 48.77474836 -22.30714989 43.47301674 C-22.32940531 39.3928889 -22.33344342 35.3128903 -22.33238602 31.23270798 C-22.33474399 29.27830534 -22.34357854 27.32389924 -22.35905075 25.36955643 C-22.37868324 22.63352355 -22.37288358 19.89864986 -22.36083984 17.16259766 C-22.37207886 16.35823776 -22.38331787 15.55387787 -22.39489746 14.72514343 C-22.33645564 9.49102199 -21.30749629 6.54771651 -17.875 2.375 C-12.94225727 -1.22365709 -5.81268449 0.00587734 0 0 Z " fill="#FEFEFE" transform="translate(1330.875,111.625)"/>
<path d="M0 0 C0.66 0 1.32 0 2 0 C2 2.31 2 4.62 2 7 C2.66 7 3.32 7 4 7 C4 14.59 4 22.18 4 30 C3.34 30 2.68 30 2 30 C2 31.98 2 33.96 2 36 C1.34 36 0.68 36 0 36 C0 37.32 0 38.64 0 40 C-0.66 40 -1.32 40 -2 40 C-2 41.32 -2 42.64 -2 44 C-2.66 44 -3.32 44 -4 44 C-4 44.66 -4 45.32 -4 46 C-4.66 46 -5.32 46 -6 46 C-6 47.32 -6 48.64 -6 50 C-6.66 50 -7.32 50 -8 50 C-8 50.66 -8 51.32 -8 52 C-8.66 52 -9.32 52 -10 52 C-10 52.66 -10 53.32 -10 54 C-10.66 54 -11.32 54 -12 54 C-12 54.66 -12 55.32 -12 56 C-13.32 56 -14.64 56 -16 56 C-16 56.66 -16 57.32 -16 58 C-16.66 58 -17.32 58 -18 58 C-18 58.66 -18 59.32 -18 60 C-19.32 60 -20.64 60 -22 60 C-22 60.66 -22 61.32 -22 62 C-22.99 62 -23.98 62 -25 62 C-25 62.66 -25 63.32 -25 64 C-27.64 64 -30.28 64 -33 64 C-33 64.66 -33 65.32 -33 66 C-40.26 66 -47.52 66 -55 66 C-55 65.34 -55 64.68 -55 64 C-56.32 64 -57.64 64 -59 64 C-59 63.34 -59 62.68 -59 62 C-59.66 62 -60.32 62 -61 62 C-61 61.34 -61 60.68 -61 60 C-61.66 60 -62.32 60 -63 60 C-63 59.34 -63 58.68 -63 58 C-63.66 58 -64.32 58 -65 58 C-65 57.34 -65 56.68 -65 56 C-65.66 56 -66.32 56 -67 56 C-67 54.68 -67 53.36 -67 52 C-67.66 52 -68.32 52 -69 52 C-69 51.34 -69 50.68 -69 50 C-68.34 50 -67.68 50 -67 50 C-67 49.34 -67 48.68 -67 48 C-66.34 48 -65.68 48 -65 48 C-65 47.34 -65 46.68 -65 46 C-64.34 46 -63.68 46 -63 46 C-63 45.34 -63 44.68 -63 44 C-62.34 44 -61.68 44 -61 44 C-61 43.34 -61 42.68 -61 42 C-60.34 42 -59.68 42 -59 42 C-59 41.34 -59 40.68 -59 40 C-57.68 40 -56.36 40 -55 40 C-55 39.34 -55 38.68 -55 38 C-54.34 38 -53.68 38 -53 38 C-53 37.34 -53 36.68 -53 36 C-52.34 36 -51.68 36 -51 36 C-51 35.34 -51 34.68 -51 34 C-50.34 34 -49.68 34 -49 34 C-49 33.34 -49 32.68 -49 32 C-47.68 32 -46.36 32 -45 32 C-45 31.34 -45 30.68 -45 30 C-44.34 30 -43.68 30 -43 30 C-43 29.34 -43 28.68 -43 28 C-41.68 28 -40.36 28 -39 28 C-39 27.34 -39 26.68 -39 26 C-38.34 26 -37.68 26 -37 26 C-37 25.34 -37 24.68 -37 24 C-36.34 24 -35.68 24 -35 24 C-35 23.34 -35 22.68 -35 22 C-33.68 22 -32.36 22 -31 22 C-31 21.34 -31 20.68 -31 20 C-30.34 20 -29.68 20 -29 20 C-29 19.34 -29 18.68 -29 18 C-27.68 18 -26.36 18 -25 18 C-25 17.34 -25 16.68 -25 16 C-24.34 16 -23.68 16 -23 16 C-23 15.34 -23 14.68 -23 14 C-21.68 14 -20.36 14 -19 14 C-19 13.34 -19 12.68 -19 12 C-15.26680365 9.35063485 -11.12007395 7.74307574 -6.890625 6.0625 C-4.65483984 5.08469551 -4.65483984 5.08469551 -4 2 C-2.68 2 -1.36 2 0 2 C0 1.34 0 0.68 0 0 Z " fill="#0E0E0E" transform="translate(104,36)"/>
<path d="M0 0 C3.3 0 6.6 0 10 0 C10 0.66 10 1.32 10 2 C13.3 2 16.6 2 20 2 C20 2.66 20 3.32 20 4 C20.99 4 21.98 4 23 4 C23 4.66 23 5.32 23 6 C24.32 6 25.64 6 27 6 C27 6.66 27 7.32 27 8 C28.32 8 29.64 8 31 8 C31 8.66 31 9.32 31 10 C31.66 10 32.32 10 33 10 C33 11.98 33 13.96 33 16 C31.2675 16.556875 31.2675 16.556875 29.5 17.125 C25.37318683 18.65426233 22.25946544 20.83683901 18.859375 23.59765625 C15.83221655 25.88074424 13.83353155 27 10 27 C10 27.66 10 28.32 10 29 C7 31 7 31 4 31 C4 31.99 4 32.98 4 34 C3.34 34 2.68 34 2 34 C2 34.66 2 35.32 2 36 C-0.97 36.495 -0.97 36.495 -4 37 C-4 37.66 -4 38.32 -4 39 C-4.66 39 -5.32 39 -6 39 C-6 39.66 -6 40.32 -6 41 C-7.32 41 -8.64 41 -10 41 C-10 41.66 -10 42.32 -10 43 C-10.66 43 -11.32 43 -12 43 C-12 43.66 -12 44.32 -12 45 C-12.66 45 -13.32 45 -14 45 C-14 45.66 -14 46.32 -14 47 C-15.32 47 -16.64 47 -18 47 C-18 47.66 -18 48.32 -18 49 C-18.66 49 -19.32 49 -20 49 C-20 49.66 -20 50.32 -20 51 C-20.66 51 -21.32 51 -22 51 C-22 51.66 -22 52.32 -22 53 C-22.66 53 -23.32 53 -24 53 C-24 53.66 -24 54.32 -24 55 C-25.32 55 -26.64 55 -28 55 C-28 55.66 -28 56.32 -28 57 C-28.66 57 -29.32 57 -30 57 C-30 57.66 -30 58.32 -30 59 C-30.66 59 -31.32 59 -32 59 C-32 59.66 -32 60.32 -32 61 C-32.66 61 -33.32 61 -34 61 C-34 61.66 -34 62.32 -34 63 C-34.66 63 -35.32 63 -36 63 C-36 62.34 -36 61.68 -36 61 C-36.66 61 -37.32 61 -38 61 C-38 59.02 -38 57.04 -38 55 C-38.66 55 -39.32 55 -40 55 C-40 48.4 -40 41.8 -40 35 C-39.34 35 -38.68 35 -38 35 C-38 32.36 -38 29.72 -38 27 C-37.34 27 -36.68 27 -36 27 C-36 25.68 -36 24.36 -36 23 C-35.34 23 -34.68 23 -34 23 C-34 22.34 -34 21.68 -34 21 C-33.34 21 -32.68 21 -32 21 C-32 19.68 -32 18.36 -32 17 C-31.34 17 -30.68 17 -30 17 C-30 16.34 -30 15.68 -30 15 C-29.34 15 -28.68 15 -28 15 C-28 14.34 -28 13.68 -28 13 C-26.68 12.67 -25.36 12.34 -24 12 C-24 11.34 -24 10.68 -24 10 C-23.34 10 -22.68 10 -22 10 C-22 9.34 -22 8.68 -22 8 C-20.68 8 -19.36 8 -18 8 C-18 7.34 -18 6.68 -18 6 C-16.68 6 -15.36 6 -14 6 C-14 5.34 -14 4.68 -14 4 C-12.68 4 -11.36 4 -10 4 C-10 3.34 -10 2.68 -10 2 C-6.7 2 -3.4 2 0 2 C0 1.34 0 0.68 0 0 Z " fill="#0A0A0A" transform="translate(69,19)"/>
<path d="M0 0 C14.85 0 29.7 0 45 0 C45 15.18 45 30.36 45 46 C30.15 46 15.3 46 0 46 C0 30.82 0 15.64 0 0 Z " fill="#F9F9F9" transform="translate(1079,600)"/>
<path d="M0 0 C14.85 0 29.7 0 45 0 C45 14.85 45 29.7 45 45 C30.15 45 15.3 45 0 45 C0 30.15 0 15.3 0 0 Z " fill="#FBFBFB" transform="translate(1309,478)"/>
<path d="M0 0 C14.85 0 29.7 0 45 0 C45 14.85 45 29.7 45 45 C30.15 45 15.3 45 0 45 C0 30.15 0 15.3 0 0 Z " fill="#FBFBFB" transform="translate(1232,478)"/>
<path d="M0 0 C14.85 0 29.7 0 45 0 C45 14.85 45 29.7 45 45 C30.15 45 15.3 45 0 45 C0 30.15 0 15.3 0 0 Z " fill="#FBFBFB" transform="translate(1309,417)"/>
<path d="M0 0 C14.85 0 29.7 0 45 0 C45 14.85 45 29.7 45 45 C30.15 45 15.3 45 0 45 C0 30.15 0 15.3 0 0 Z " fill="#FCFCFC" transform="translate(1002,295)"/>
<path d="M0 0 C14.85 0 29.7 0 45 0 C45 14.85 45 29.7 45 45 C30.15 45 15.3 45 0 45 C0 30.15 0 15.3 0 0 Z " fill="#FCFCFC" transform="translate(1002,234)"/>
<path d="M0 0 C14.52 0 29.04 0 44 0 C44 14.52 44 29.04 44 44 C29.48 44 14.96 44 0 44 C0 29.48 0 14.96 0 0 Z " fill="#FFFFFF" transform="translate(1156,601)"/>
<path d="M0 0 C14.52 0 29.04 0 44 0 C44 14.52 44 29.04 44 44 C29.48 44 14.96 44 0 44 C0 29.48 0 14.96 0 0 Z " fill="#FFFFFF" transform="translate(1156,173)"/>
<path d="M0 0 C2.02817196 -0.00967986 4.05531899 -0.04069095 6.08325195 -0.07226562 C7.36651367 -0.07742188 8.64977539 -0.08257813 9.97192383 -0.08789062 C11.73596558 -0.10190918 11.73596558 -0.10190918 13.53564453 -0.11621094 C18.26925239 0.41139174 21.69921023 2.59891556 24.73364258 6.24023438 C26.48378274 11.49065485 26.00314001 17.05700586 26.04614258 22.55273438 C26.07514648 23.77669922 26.10415039 25.00066406 26.1340332 26.26171875 C26.21472156 37.67601849 26.21472156 37.67601849 21.73364258 42.24023438 C21.07364258 42.24023438 20.41364258 42.24023438 19.73364258 42.24023438 C19.40364258 43.23023438 19.07364258 44.22023438 18.73364258 45.24023438 C14.44719228 45.43923037 10.16324007 45.58371021 5.87353516 45.6796875 C4.41732931 45.71972065 2.96144107 45.77417071 1.50634766 45.84375 C-10.01876427 46.38071993 -10.01876427 46.38071993 -14.7980957 43.95556641 C-19.06251218 39.94959942 -19.72634925 35.80612744 -20.12573242 30.10742188 C-20.12573242 28.12116678 -20.12484459 26.13439825 -20.0690918 24.14892578 C-20.016237 22.11059015 -20.02798949 20.07980952 -20.04760742 18.04101562 C-19.9180454 7.16860293 -19.9180454 7.16860293 -16.84448242 3.37304688 C-11.67191698 -0.90607545 -6.50526454 0.01881267 0 0 Z " fill="#FBFBFB" transform="translate(1098.266357421875,722.759765625)"/>
<path d="M0 0 C2.02817196 -0.00967986 4.05531899 -0.04069095 6.08325195 -0.07226562 C7.36651367 -0.07742188 8.64977539 -0.08257813 9.97192383 -0.08789062 C11.73596558 -0.10190918 11.73596558 -0.10190918 13.53564453 -0.11621094 C18.26925239 0.41139174 21.69921023 2.59891556 24.73364258 6.24023438 C26.43109034 11.33257767 26.00258472 16.6587526 26.04614258 21.99023438 C26.07514648 23.158125 26.10415039 24.32601562 26.1340332 25.52929688 C26.18423496 32.34128974 25.83390472 36.70851977 21.73364258 42.24023438 C21.07364258 42.24023438 20.41364258 42.24023438 19.73364258 42.24023438 C19.40364258 43.23023438 19.07364258 44.22023438 18.73364258 45.24023438 C14.44719228 45.43923037 10.16324007 45.58371021 5.87353516 45.6796875 C4.41732931 45.71972065 2.96144107 45.77417071 1.50634766 45.84375 C-10.01876427 46.38071993 -10.01876427 46.38071993 -14.7980957 43.95556641 C-19.06251218 39.94959942 -19.72634925 35.80612744 -20.12573242 30.10742188 C-20.12573242 28.12116678 -20.12484459 26.13439825 -20.0690918 24.14892578 C-20.016237 22.11059015 -20.02798949 20.07980952 -20.04760742 18.04101562 C-19.9180454 7.16860293 -19.9180454 7.16860293 -16.84448242 3.37304688 C-11.67191698 -0.90607545 -6.50526454 0.01881267 0 0 Z " fill="#FBFBFB" transform="translate(1328.266357421875,722.759765625)"/>
<path d="M0 0 C2.00794908 0.00314612 4.01587982 -0.02113302 6.02368164 -0.0456543 C7.29920898 -0.04629883 8.57473633 -0.04694336 9.88891602 -0.04760742 C11.63555542 -0.05207886 11.63555542 -0.05207886 13.41748047 -0.05664062 C18.24473227 0.48870044 21.46741563 1.77446391 24.55444336 5.59375 C26.85368521 10.99498207 26.30956776 16.84335528 26.33813477 22.62817383 C26.38325195 23.92174805 26.42836914 25.21532227 26.47485352 26.5480957 C26.51648995 32.36232593 26.49157487 37.31973467 23.05297852 42.19067383 C18.73298115 46.25903683 14.15584872 46.22298049 8.43774414 46.1652832 C7.18799805 46.11178711 5.93825195 46.05829102 4.65063477 46.00317383 C2.77021484 45.98673828 2.77021484 45.98673828 0.85180664 45.9699707 C-6.54970629 45.80864054 -12.11839522 45.44189757 -17.63061523 40.00317383 C-20.7249772 34.80310497 -19.85849521 28.14157839 -19.78686523 22.31567383 C-19.80233398 21.05754883 -19.81780273 19.79942383 -19.83374023 18.50317383 C-19.78503788 7.0094192 -19.78503788 7.0094192 -15.28686523 2.31567383 C-10.57048991 -0.82857639 -5.54942668 -0.01822139 0 0 Z " fill="#FBFBFB" transform="translate(1251.286865234375,722.684326171875)"/>
<path d="M0 0 C1.31871094 -0.01998047 2.63742187 -0.03996094 3.99609375 -0.06054688 C5.90068359 -0.05958008 5.90068359 -0.05958008 7.84375 -0.05859375 C9.57915039 -0.06137329 9.57915039 -0.06137329 11.34960938 -0.06420898 C15.15873322 0.54240521 16.76530734 1.76778954 19.5 4.4375 C22.6866954 9.2175431 21.94856655 14.41433312 21.98046875 20.04174805 C21.99978225 22.10177445 22.06177287 24.15771632 22.125 26.21679688 C22.22780167 39.31758523 22.22780167 39.31758523 17.79150391 44.1418457 C12.98314452 46.86057181 7.44847218 46.45126303 2.07739258 46.26074219 C-0.06166668 46.18752852 -2.19380076 46.17870452 -4.33398438 46.1796875 C-15.79207741 46.01514712 -15.79207741 46.01514712 -20.5 41.4375 C-24.6603322 35.75687135 -23.97862246 29.18158363 -23.9375 22.4375 C-23.95748047 21.27476562 -23.97746094 20.11203125 -23.99804688 18.9140625 C-23.99186375 8.10596694 -23.99186375 8.10596694 -19.5 3.4375 C-13.49754526 -0.93288723 -7.14839671 -0.03843224 0 0 Z " fill="#FBFBFB" transform="translate(1178.5,722.5625)"/>
<path d="M0 0 C2.02817196 -0.00967986 4.05531899 -0.04069095 6.08325195 -0.07226562 C7.36651367 -0.07742188 8.64977539 -0.08257813 9.97192383 -0.08789062 C11.73596558 -0.10190918 11.73596558 -0.10190918 13.53564453 -0.11621094 C18.26925239 0.41139174 21.69921023 2.59891556 24.73364258 6.24023438 C26.48378274 11.49065485 26.00314001 17.05700586 26.04614258 22.55273438 C26.07514648 23.77669922 26.10415039 25.00066406 26.1340332 26.26171875 C26.21472156 37.67601849 26.21472156 37.67601849 21.73364258 42.24023438 C21.07364258 42.24023438 20.41364258 42.24023438 19.73364258 42.24023438 C19.40364258 43.23023438 19.07364258 44.22023438 18.73364258 45.24023438 C14.44719228 45.43923037 10.16324007 45.58371021 5.87353516 45.6796875 C4.41732931 45.71972065 2.96144107 45.77417071 1.50634766 45.84375 C-10.01876427 46.38071993 -10.01876427 46.38071993 -14.7980957 43.95556641 C-19.06251218 39.94959942 -19.72634925 35.80612744 -20.12573242 30.10742188 C-20.12573242 28.12116678 -20.12484459 26.13439825 -20.0690918 24.14892578 C-20.016237 22.11059015 -20.02798949 20.07980952 -20.04760742 18.04101562 C-19.9180454 7.16860293 -19.9180454 7.16860293 -16.84448242 3.37304688 C-11.67191698 -0.90607545 -6.50526454 0.01881267 0 0 Z " fill="#FBFBFB" transform="translate(868.266357421875,722.759765625)"/>
<path d="M0 0 C2.16489174 -0.01188701 4.32692165 -0.06106233 6.49121094 -0.11157227 C7.87400958 -0.12103855 9.25682567 -0.12827261 10.63964844 -0.13305664 C11.89310059 -0.14651123 13.14655273 -0.15996582 14.43798828 -0.17382812 C18.7041256 0.58588224 20.09319183 2.12325072 22.80371094 5.42553711 C25.94678162 10.14014313 25.21372326 15.1619547 25.22924805 20.71240234 C25.24110799 22.7206056 25.29080156 24.7284687 25.34082031 26.73608398 C25.40115621 37.5910606 25.40115621 37.5910606 22.58886719 41.21850586 C16.26552674 46.22928756 10.11575328 45.76026758 2.36621094 45.73803711 C1.24666016 45.75415039 0.12710938 45.77026367 -1.02636719 45.78686523 C-8.35614664 45.79121525 -13.12944181 45.45149306 -18.54003906 40.11303711 C-21.63440103 34.91296825 -20.76791904 28.25144167 -20.69628906 22.42553711 C-20.71175781 21.16741211 -20.72722656 19.90928711 -20.74316406 18.61303711 C-20.69446171 7.11928248 -20.69446171 7.11928248 -16.19628906 2.42553711 C-11.34233307 -0.81043355 -5.68141178 0.01478865 0 0 Z " fill="#FBFBFB" transform="translate(1022.1962890625,722.574462890625)"/>
<path d="M0 0 C1.31033203 -0.02835938 2.62066406 -0.05671875 3.97070312 -0.0859375 C14.69692541 -0.10777205 14.69692541 -0.10777205 18.41015625 2.90625 C22.70874709 8.08640303 21.7838701 13.24324989 21.80273438 19.76635742 C21.81241423 21.79452939 21.84342532 23.82167642 21.875 25.84960938 C21.88273438 27.77450195 21.88273438 27.77450195 21.890625 29.73828125 C21.90464355 31.502323 21.90464355 31.502323 21.91894531 33.30200195 C21.52183654 36.86482923 20.63248527 38.60996344 18.5625 41.5 C18.14790527 42.25216797 17.73331055 43.00433594 17.30615234 43.77929688 C14.63061214 46.41962274 12.35216041 46.017951 8.6640625 46.03125 C7.65610123 46.03699036 7.65610123 46.03699036 6.6277771 46.04284668 C5.2072398 46.045566 3.78665245 46.03820302 2.36621094 46.02148438 C0.20132444 46.00013632 -1.96021893 46.02124462 -4.125 46.046875 C-5.50781978 46.04423041 -6.89063749 46.03910271 -8.2734375 46.03125 C-9.52688965 46.02673828 -10.7803418 46.02222656 -12.07177734 46.01757812 C-16.00975168 45.4119996 -17.62077279 44.25856845 -20.4375 41.5 C-24.5978322 35.81937135 -23.91612246 29.24408363 -23.875 22.5 C-23.89498047 21.33726562 -23.91496094 20.17453125 -23.93554688 18.9765625 C-23.92936375 8.16846694 -23.92936375 8.16846694 -19.4375 3.5 C-13.44629676 -0.85198904 -7.13517726 -0.01399741 0 0 Z " fill="#FBFBFB" transform="translate(948.4375,722.5)"/>
<path d="M0 0 C1.17626953 -0.02900391 2.35253906 -0.05800781 3.56445312 -0.08789062 C14.44040548 -0.16781566 14.44040548 -0.16781566 19.1875 4.3125 C23.60693609 9.0348652 22.67333626 14.53943063 22.63354492 20.67480469 C22.6250578 22.67388526 22.65517192 24.67300719 22.68554688 26.671875 C22.68490234 27.94289063 22.68425781 29.21390625 22.68359375 30.5234375 C22.68637329 32.26052979 22.68637329 32.26052979 22.68920898 34.03271484 C22.07834655 38.0260608 20.69205056 40.17592825 18.1875 43.3125 C13.38510231 46.51409846 8.12490491 45.72277529 2.47338867 45.73803711 C0.39185807 45.74990389 -1.68667589 45.79906014 -3.76757812 45.84960938 C-14.91021325 45.98761688 -14.91021325 45.98761688 -18.63671875 43.03515625 C-23.70349721 36.69486076 -23.27874978 30.97175748 -23.375 23.0625 C-23.42462891 21.85980469 -23.47425781 20.65710938 -23.52539062 19.41796875 C-23.59510083 13.36977897 -23.47599805 9.25003297 -19.46484375 4.515625 C-13.92987343 -0.99228839 -7.35784138 0.05988476 0 0 Z " fill="#FBFBFB" transform="translate(947.8125,599.6875)"/>
<path d="M0 0 C2.02817196 -0.00967986 4.05531899 -0.04069095 6.08325195 -0.07226562 C7.36651367 -0.07742188 8.64977539 -0.08257813 9.97192383 -0.08789062 C11.73596558 -0.10190918 11.73596558 -0.10190918 13.53564453 -0.11621094 C18.24310533 0.40847742 20.76376848 2.23869772 24.00708008 5.58789062 C27.10152506 10.64797952 26.38920185 16.96009488 26.35864258 22.67773438 C26.39086914 23.87978516 26.4230957 25.08183594 26.45629883 26.3203125 C26.46717066 36.17562931 26.46717066 36.17562931 22.94458008 40.46289062 C17.07822566 46.32081906 10.71098011 45.60665259 2.85864258 45.61523438 C1.68688477 45.63972656 0.51512695 45.66421875 -0.69213867 45.68945312 C-11.49701861 45.72624613 -11.49701861 45.72624613 -16.26635742 41.24023438 C-20.76897286 36.46189316 -19.78789546 30.66759267 -19.76733398 24.45068359 C-19.76636331 22.37781063 -19.80796159 20.30866522 -19.85229492 18.23632812 C-19.87416904 7.06959335 -19.87416904 7.06959335 -16.86010742 3.35742188 C-11.66010203 -0.88716084 -6.51141175 0.01883045 0 0 Z " fill="#FBFBFB" transform="translate(1328.266357421875,661.759765625)"/>
<path d="M0 0 C2.02817196 -0.00967986 4.05531899 -0.04069095 6.08325195 -0.07226562 C7.36651367 -0.07742188 8.64977539 -0.08257813 9.97192383 -0.08789062 C11.73596558 -0.10190918 11.73596558 -0.10190918 13.53564453 -0.11621094 C18.24310533 0.40847742 20.76376848 2.23869772 24.00708008 5.58789062 C27.10152506 10.64797952 26.38920185 16.96009488 26.35864258 22.67773438 C26.39086914 23.87978516 26.4230957 25.08183594 26.45629883 26.3203125 C26.46717066 36.17562931 26.46717066 36.17562931 22.94458008 40.46289062 C17.07822566 46.32081906 10.71098011 45.60665259 2.85864258 45.61523438 C1.68688477 45.63972656 0.51512695 45.66421875 -0.69213867 45.68945312 C-11.49701861 45.72624613 -11.49701861 45.72624613 -16.26635742 41.24023438 C-20.76897286 36.46189316 -19.78789546 30.66759267 -19.76733398 24.45068359 C-19.76636331 22.37781063 -19.80796159 20.30866522 -19.85229492 18.23632812 C-19.87416904 7.06959335 -19.87416904 7.06959335 -16.86010742 3.35742188 C-11.66010203 -0.88716084 -6.51141175 0.01883045 0 0 Z " fill="#FBFBFB" transform="translate(1098.266357421875,661.759765625)"/>
<path d="M0 0 C1.21494141 -0.01998047 2.42988281 -0.03996094 3.68164062 -0.06054688 C14.96313714 -0.05436523 14.96313714 -0.05436523 19.5625 4.4375 C23.79971679 10.32821794 23.11426107 16.30356062 23.125 23.3125 C23.16173828 24.56675781 23.19847656 25.82101562 23.23632812 27.11328125 C23.28544584 37.42800161 23.28544584 37.42800161 19.71484375 41.7578125 C14.43318601 46.97444749 7.17109187 45.65861699 0.25 45.6875 C-0.97396484 45.708125 -2.19792969 45.72875 -3.45898438 45.75 C-5.23692383 45.75773438 -5.23692383 45.75773438 -7.05078125 45.765625 C-8.13141846 45.7749707 -9.21205566 45.78431641 -10.32543945 45.79394531 C-15.06582593 45.25099683 -18.2599799 43.89504866 -21.28540039 40.15014648 C-23.53089543 34.86307394 -22.90667343 29.1580256 -22.875 23.5 C-22.89498047 22.23736328 -22.91496094 20.97472656 -22.93554688 19.67382812 C-22.92937359 7.97544408 -22.92937359 7.97544408 -18.4375 3.4375 C-12.62291014 -0.72997925 -6.9103429 -0.04019766 0 0 Z " fill="#FBFBFB" transform="translate(1254.4375,599.5625)"/>
<path d="M0 0 C1.17626953 -0.02900391 2.35253906 -0.05800781 3.56445312 -0.08789062 C14.44040548 -0.16781566 14.44040548 -0.16781566 19.1875 4.3125 C23.7082815 9.09888933 22.67241298 14.93002696 22.63354492 21.15698242 C22.62503908 23.24042717 22.65380093 25.32112311 22.68554688 27.40429688 C22.68490234 28.72365234 22.68425781 30.04300781 22.68359375 31.40234375 C22.68637329 33.21013306 22.68637329 33.21013306 22.68920898 35.05444336 C22.09108478 38.93861245 20.9168073 40.53684422 18.1875 43.3125 C13.38510231 46.51409846 8.12490491 45.72277529 2.47338867 45.73803711 C0.39185807 45.74990389 -1.68667589 45.79906014 -3.76757812 45.84960938 C-14.91021325 45.98761688 -14.91021325 45.98761688 -18.63671875 43.03515625 C-23.65996566 36.74933381 -23.17893699 31.27265647 -23.1875 23.4375 C-23.21199219 22.26574219 -23.23648437 21.09398437 -23.26171875 19.88671875 C-23.28380936 13.39944432 -23.24510123 9.21256954 -18.8125 4.3125 C-18.296875 3.714375 -17.78125 3.11625 -17.25 2.5 C-12.75949303 -1.20954924 -5.46652778 0.04449154 0 0 Z " fill="#FBFBFB" transform="translate(1177.8125,538.6875)"/>
<path d="M0 0 C1.17626953 -0.02900391 2.35253906 -0.05800781 3.56445312 -0.08789062 C14.44040548 -0.16781566 14.44040548 -0.16781566 19.1875 4.3125 C23.60693609 9.0348652 22.67333626 14.53943063 22.63354492 20.67480469 C22.6250578 22.67388526 22.65517192 24.67300719 22.68554688 26.671875 C22.68490234 27.94289063 22.68425781 29.21390625 22.68359375 30.5234375 C22.68637329 32.26052979 22.68637329 32.26052979 22.68920898 34.03271484 C22.07834655 38.0260608 20.69205056 40.17592825 18.1875 43.3125 C13.38510231 46.51409846 8.12490491 45.72277529 2.47338867 45.73803711 C0.39185807 45.74990389 -1.68667589 45.79906014 -3.76757812 45.84960938 C-14.91021325 45.98761688 -14.91021325 45.98761688 -18.63671875 43.03515625 C-23.65996566 36.74933381 -23.17893699 31.27265647 -23.1875 23.4375 C-23.21199219 22.26574219 -23.23648438 21.09398437 -23.26171875 19.88671875 C-23.28380936 13.39944432 -23.24510123 9.21256954 -18.8125 4.3125 C-18.296875 3.714375 -17.78125 3.11625 -17.25 2.5 C-12.75949303 -1.20954924 -5.46652778 0.04449154 0 0 Z " fill="#FBFBFB" transform="translate(947.8125,538.6875)"/>
<path d="M0 0 C1.69479492 -0.00580078 1.69479492 -0.00580078 3.42382812 -0.01171875 C4.59494141 -0.00011719 5.76605469 0.01148438 6.97265625 0.0234375 C8.72352539 0.00603516 8.72352539 0.00603516 10.50976562 -0.01171875 C17.96493785 0.01376902 22.90867032 0.27715371 28.3828125 5.7421875 C31.4042232 10.81702973 30.56655188 17.21017945 30.47265625 22.8984375 C30.47974609 24.10886719 30.48683594 25.31929687 30.49414062 26.56640625 C30.41751164 37.28267525 30.41751164 37.28267525 27.03515625 42.3984375 C22.91961126 45.12272121 19.63784377 45.78130689 14.75390625 45.796875 C13.58214844 45.80074219 12.41039062 45.80460938 11.203125 45.80859375 C9.99269531 45.79699219 8.78226563 45.78539062 7.53515625 45.7734375 C5.71951172 45.79083984 5.71951172 45.79083984 3.8671875 45.80859375 C2.10955078 45.80279297 2.10955078 45.80279297 0.31640625 45.796875 C-0.74513672 45.79349121 -1.80667969 45.79010742 -2.90039062 45.78662109 C-7.60227558 45.19101903 -10.80634466 43.83244172 -13.81274414 40.11108398 C-16.05823918 34.82401144 -15.43401718 29.1189631 -15.40234375 23.4609375 C-15.42232422 22.19830078 -15.44230469 20.93566406 -15.46289062 19.63476562 C-15.45671734 7.93638158 -15.45671734 7.93638158 -10.96484375 3.3984375 C-7.19705528 0.71057549 -4.6067321 0.01520971 0 0 Z " fill="#FCFCFC" transform="translate(1016.96484375,599.6015625)"/>
<path d="M0 0 C1.17175781 -0.02449219 2.34351563 -0.04898438 3.55078125 -0.07421875 C10.03805568 -0.09630936 14.22493046 -0.05760123 19.125 4.375 C19.723125 4.890625 20.32125 5.40625 20.9375 5.9375 C24.64704924 10.42800697 23.39300846 17.72097222 23.4375 23.1875 C23.46650391 24.36376953 23.49550781 25.54003906 23.52539062 26.75195312 C23.60625939 37.7563255 23.60625939 37.7563255 19.125 42.375 C13.12053111 46.7439208 6.7747993 45.85093978 -0.375 45.8125 C-1.69371094 45.83248047 -3.01242187 45.85246094 -4.37109375 45.87304688 C-5.64082031 45.87240234 -6.91054688 45.87175781 -8.21875 45.87109375 C-9.37568359 45.87294678 -10.53261719 45.8747998 -11.72460938 45.87670898 C-15.53373322 45.27009479 -17.14030734 44.04471046 -19.875 41.375 C-23.07659846 36.57260231 -22.28527529 31.31240491 -22.30053711 25.66088867 C-22.31240389 23.57935807 -22.36156014 21.50082411 -22.41210938 19.41992188 C-22.55011688 8.27728675 -22.55011688 8.27728675 -19.59765625 4.55078125 C-13.31183381 -0.47246566 -7.83515647 0.00856301 0 0 Z " fill="#FBFBFB" transform="translate(870.875,599.625)"/>
<path d="M0 0 C1.17175781 -0.02449219 2.34351563 -0.04898438 3.55078125 -0.07421875 C14.48948048 -0.11146744 14.48948048 -0.11146744 19.125 4.375 C24.4257695 9.88780028 23.72082021 16.17251445 23.625 23.375 C23.64046875 24.53773438 23.6559375 25.70046875 23.671875 26.8984375 C23.62247335 37.69269898 23.62247335 37.69269898 19.125 42.375 C13.1228739 46.74562713 6.77315983 45.85093097 -0.375 45.8125 C-1.69371094 45.83248047 -3.01242187 45.85246094 -4.37109375 45.87304688 C-5.64082031 45.87240234 -6.91054687 45.87175781 -8.21875 45.87109375 C-9.37568359 45.87294678 -10.53261719 45.8747998 -11.72460938 45.87670898 C-15.53373322 45.27009479 -17.14030734 44.04471046 -19.875 41.375 C-23.07659846 36.57260231 -22.28527529 31.31240491 -22.30053711 25.66088867 C-22.31240389 23.57935807 -22.36156014 21.50082411 -22.41210938 19.41992188 C-22.55011688 8.27728675 -22.55011688 8.27728675 -19.59765625 4.55078125 C-13.31183381 -0.47246566 -7.83515647 0.00856301 0 0 Z " fill="#FBFBFB" transform="translate(1330.875,599.625)"/>
<path d="M0 0 C1.16273437 -0.01546875 2.32546875 -0.0309375 3.5234375 -0.046875 C9.93853961 -0.01751526 14.21850872 0.03308051 19 4.5 C23.52229194 9.28378269 22.48490186 15.11930758 22.44604492 21.34448242 C22.43753908 23.42792717 22.46630093 25.50862311 22.49804688 27.59179688 C22.49740234 28.91115234 22.49675781 30.23050781 22.49609375 31.58984375 C22.49887329 33.39763306 22.49887329 33.39763306 22.50170898 35.24194336 C21.90358478 39.12611245 20.7293073 40.72434422 18 43.5 C13.19760231 46.70159846 7.93740491 45.91027529 2.28588867 45.92553711 C0.20435807 45.93740389 -1.87417589 45.98656014 -3.95507812 46.03710938 C-15.09771325 46.17511688 -15.09771325 46.17511688 -18.82421875 43.22265625 C-23.84746566 36.93683381 -23.36643699 31.46015647 -23.375 23.625 C-23.39949219 22.45324219 -23.42398437 21.28148437 -23.44921875 20.07421875 C-23.48646744 9.13551952 -23.48646744 9.13551952 -19 4.5 C-13.48719972 -0.8007695 -7.20248555 -0.09582021 0 0 Z " fill="#FBFBFB" transform="translate(1178,477.5)"/>
<path d="M0 0 C1.17175781 -0.02449219 2.34351563 -0.04898438 3.55078125 -0.07421875 C14.48948048 -0.11146744 14.48948048 -0.11146744 19.125 4.375 C24.4257695 9.88780028 23.72082021 16.17251445 23.625 23.375 C23.64046875 24.53773438 23.6559375 25.70046875 23.671875 26.8984375 C23.62247335 37.69269898 23.62247335 37.69269898 19.125 42.375 C13.1228739 46.74562713 6.77315983 45.85093097 -0.375 45.8125 C-1.69371094 45.83248047 -3.01242187 45.85246094 -4.37109375 45.87304688 C-5.64082031 45.87240234 -6.91054687 45.87175781 -8.21875 45.87109375 C-9.37568359 45.87294678 -10.53261719 45.8747998 -11.72460938 45.87670898 C-15.53373322 45.27009479 -17.14030734 44.04471046 -19.875 41.375 C-23.07659846 36.57260231 -22.28527529 31.31240491 -22.30053711 25.66088867 C-22.31240389 23.57935807 -22.36156014 21.50082411 -22.41210938 19.41992188 C-22.55011688 8.27728675 -22.55011688 8.27728675 -19.59765625 4.55078125 C-13.31183381 -0.47246566 -7.83515647 0.00856301 0 0 Z " fill="#FBFBFB" transform="translate(1100.875,538.625)"/>
<path d="M0 0 C1.17175781 -0.02449219 2.34351563 -0.04898438 3.55078125 -0.07421875 C14.48948048 -0.11146744 14.48948048 -0.11146744 19.125 4.375 C24.4257695 9.88780028 23.72082021 16.17251445 23.625 23.375 C23.64046875 24.53773438 23.6559375 25.70046875 23.671875 26.8984375 C23.62247335 37.69269898 23.62247335 37.69269898 19.125 42.375 C13.1228739 46.74562713 6.77315983 45.85093097 -0.375 45.8125 C-1.69371094 45.83248047 -3.01242187 45.85246094 -4.37109375 45.87304688 C-5.64082031 45.87240234 -6.91054688 45.87175781 -8.21875 45.87109375 C-9.37568359 45.87294678 -10.53261719 45.8747998 -11.72460938 45.87670898 C-15.58156969 45.2624767 -17.17330861 44.16537423 -19.875 41.375 C-23.05675726 35.57601995 -22.2830358 28.87051644 -22.3125 22.4375 C-22.34537109 21.17486328 -22.37824219 19.91222656 -22.41210938 18.61132812 C-22.47224549 8.25151596 -22.47224549 8.25151596 -19.59765625 4.62109375 C-13.36602069 -0.51978207 -7.84614758 0.00857502 0 0 Z " fill="#FBFBFB" transform="translate(870.875,538.625)"/>
<path d="M0 0 C1.17175781 -0.02449219 2.34351563 -0.04898437 3.55078125 -0.07421875 C14.48948048 -0.11146744 14.48948048 -0.11146744 19.125 4.375 C24.4257695 9.88780028 23.72082021 16.17251445 23.625 23.375 C23.64046875 24.53773438 23.6559375 25.70046875 23.671875 26.8984375 C23.62247335 37.69269898 23.62247335 37.69269898 19.125 42.375 C13.1228739 46.74562713 6.77315983 45.85093097 -0.375 45.8125 C-1.69371094 45.83248047 -3.01242187 45.85246094 -4.37109375 45.87304688 C-5.64082031 45.87240234 -6.91054687 45.87175781 -8.21875 45.87109375 C-9.37568359 45.87294678 -10.53261719 45.8747998 -11.72460938 45.87670898 C-15.58156969 45.2624767 -17.17330861 44.16537423 -19.875 41.375 C-23.05675726 35.57601995 -22.2830358 28.87051644 -22.3125 22.4375 C-22.34537109 21.17486328 -22.37824219 19.91222656 -22.41210938 18.61132812 C-22.47224549 8.25151596 -22.47224549 8.25151596 -19.59765625 4.62109375 C-13.36602069 -0.51978207 -7.84614758 0.00857502 0 0 Z " fill="#FBFBFB" transform="translate(1100.875,477.625)"/>
<path d="M0 0 C1.21494141 -0.01998047 2.42988281 -0.03996094 3.68164062 -0.06054688 C14.96313714 -0.05436523 14.96313714 -0.05436523 19.5625 4.4375 C22.25242662 8.2036403 22.94572992 10.79625885 22.9609375 15.40234375 C22.96673828 17.09713867 22.96673828 17.09713867 22.97265625 18.82617188 C22.96105469 19.99728516 22.94945312 21.16839844 22.9375 22.375 C22.94910156 23.54224609 22.96070313 24.70949219 22.97265625 25.91210938 C22.9472024 33.35735983 22.67579593 38.28739145 17.25 43.77734375 C12.04507164 46.87299096 5.39678741 46.0508109 -0.4375 46 C-1.695625 46.02384766 -2.95375 46.04769531 -4.25 46.07226562 C-14.51666778 46.05595206 -14.51666778 46.05595206 -18.1875 43.21484375 C-23.35949619 36.83066096 -22.80382548 30.38080245 -22.8125 22.5 C-22.83699219 21.33275391 -22.86148437 20.16550781 -22.88671875 18.96289062 C-22.9239092 8.08468495 -22.9239092 8.08468495 -18.4375 3.4375 C-12.62938901 -0.73493936 -6.90598159 -0.04017229 0 0 Z " fill="#FCFCFC" transform="translate(1254.4375,416.5625)"/>
<path d="M0 0 C1.16337891 -0.02449219 2.32675781 -0.04898437 3.52539062 -0.07421875 C10.24871845 -0.09717832 14.89655216 0.02963766 20.1875 4.375 C24.35260839 9.76664338 23.66657867 16.29976796 23.625 22.8125 C23.6549707 24.47249023 23.6549707 24.47249023 23.68554688 26.16601562 C23.68161531 32.74352587 23.38865531 37.18122563 19.1875 42.375 C14.95408359 44.92323726 11.78747786 45.75785937 6.87109375 45.7734375 C5.69482422 45.77730469 4.51855469 45.78117187 3.30664062 45.78515625 C2.09169922 45.77355469 0.87675781 45.76195312 -0.375 45.75 C-2.20321289 45.76740234 -2.20321289 45.76740234 -4.06835938 45.78515625 C-5.83083008 45.77935547 -5.83083008 45.77935547 -7.62890625 45.7734375 C-9.22907593 45.76836182 -9.22907593 45.76836182 -10.86157227 45.76318359 C-14.32813671 45.3071699 -16.08777204 44.56576801 -18.8125 42.375 C-22.88656247 36.02071198 -22.32747993 29.68520697 -22.3125 22.375 C-22.34085938 21.116875 -22.36921875 19.85875 -22.3984375 18.5625 C-22.42023071 8.27610446 -22.42023071 8.27610446 -19.53125 4.625 C-13.32170714 -0.51393202 -7.82644211 0.00858633 0 0 Z " fill="#FCFCFC" transform="translate(1100.8125,416.625)"/>
<path d="M0 0 C1.21494141 -0.01998047 2.42988281 -0.03996094 3.68164062 -0.06054688 C14.96313714 -0.05436523 14.96313714 -0.05436523 19.5625 4.4375 C22.25242662 8.2036403 22.94572992 10.79625885 22.9609375 15.40234375 C22.96673828 17.09713867 22.96673828 17.09713867 22.97265625 18.82617188 C22.96105469 19.99728516 22.94945312 21.16839844 22.9375 22.375 C22.94910156 23.54224609 22.96070313 24.70949219 22.97265625 25.91210938 C22.94717875 33.36427753 22.68726619 38.31273381 17.21875 43.78125 C12.13963418 46.80363744 5.7586302 46.010294 0.0625 45.9375 C-1.14792969 45.95296875 -2.35835937 45.9684375 -3.60546875 45.984375 C-14.81673924 45.93504048 -14.81673924 45.93504048 -19.4375 41.4375 C-23.60813784 35.62702748 -22.91518141 29.90755051 -22.875 23 C-22.89498047 21.78505859 -22.91496094 20.57011719 -22.93554688 19.31835938 C-22.92936523 8.03686286 -22.92936523 8.03686286 -18.4375 3.4375 C-12.62630103 -0.73257916 -6.90805292 -0.04018434 0 0 Z " fill="#FCFCFC" transform="translate(1254.4375,355.5625)"/>
<path d="M0 0 C1.17175781 -0.01611328 2.34351563 -0.03222656 3.55078125 -0.04882812 C14.85873138 -0.0552458 14.85873138 -0.0552458 19.125 3.3125 C23.99459721 9.35080054 23.73068352 15.28254932 23.625 22.8125 C23.64046875 23.91464844 23.6559375 25.01679688 23.671875 26.15234375 C23.64042997 32.70077145 23.29686148 37.13939177 19.125 42.3125 C14.89187956 44.86116075 11.72485621 45.69535975 6.80859375 45.7109375 C5.63232422 45.71480469 4.45605469 45.71867187 3.24414062 45.72265625 C2.02919922 45.71105469 0.81425781 45.69945312 -0.4375 45.6875 C-2.26571289 45.70490234 -2.26571289 45.70490234 -4.13085938 45.72265625 C-5.89333008 45.71685547 -5.89333008 45.71685547 -7.69140625 45.7109375 C-9.29157593 45.70586182 -9.29157593 45.70586182 -10.92407227 45.70068359 C-14.39063671 45.2446699 -16.15027204 44.50326801 -18.875 42.3125 C-22.94906247 35.95821198 -22.38997993 29.62270697 -22.375 22.3125 C-22.40335938 21.054375 -22.43171875 19.79625 -22.4609375 18.5 C-22.48273071 8.21360446 -22.48273071 8.21360446 -19.59375 4.5625 C-13.35804643 -0.59808226 -7.85582578 -0.021464 0 0 Z " fill="#FCFCFC" transform="translate(1100.875,355.6875)"/>
<path d="M0 0 C1.69479492 -0.00580078 1.69479492 -0.00580078 3.42382812 -0.01171875 C4.59494141 -0.00011719 5.76605469 0.01148438 6.97265625 0.0234375 C8.72352539 0.00603516 8.72352539 0.00603516 10.50976562 -0.01171875 C17.96193378 0.01375875 22.91039006 0.27367131 28.37890625 5.7421875 C31.40129369 10.82130332 30.60795025 17.2023073 30.53515625 22.8984375 C30.550625 24.10886719 30.56609375 25.31929688 30.58203125 26.56640625 C30.53215211 37.90144164 30.53215211 37.90144164 26.03515625 42.3984375 C20.46212851 46.62286397 13.7188362 45.87669165 7.03515625 45.8359375 C5.29105469 45.8659082 5.29105469 45.8659082 3.51171875 45.89648438 C-7.29637681 45.89030125 -7.29637681 45.89030125 -11.96484375 41.3984375 C-16.13784081 35.59105324 -15.44251312 29.86641685 -15.40234375 22.9609375 C-15.42232422 21.74599609 -15.44230469 20.53105469 -15.46289062 19.27929688 C-15.45670898 7.99780036 -15.45670898 7.99780036 -10.96484375 3.3984375 C-7.19870345 0.70851088 -4.6060849 0.01520758 0 0 Z " fill="#FCFCFC" transform="translate(1016.96484375,355.6015625)"/>
<path d="M0 0 C1.69479492 -0.00580078 1.69479492 -0.00580078 3.42382812 -0.01171875 C4.59494141 -0.00011719 5.76605469 0.01148438 6.97265625 0.0234375 C8.72352539 0.00603516 8.72352539 0.00603516 10.50976562 -0.01171875 C21.60287785 0.02620642 21.60287785 0.02620642 26.03515625 3.3984375 C30.627469 8.04423809 30.52965599 12.67461376 30.53320312 18.875 C30.51322266 20.03773438 30.49324219 21.20046875 30.47265625 22.3984375 C30.47974609 23.56117188 30.48683594 24.72390625 30.49414062 25.921875 C30.41524141 36.53078429 30.41524141 36.53078429 27.03515625 41.3984375 C21.20299216 46.68383621 14.15129559 45.68818447 6.72265625 45.7734375 C5.49869141 45.81082031 4.27472656 45.84820312 3.01367188 45.88671875 C-7.08759603 45.98558924 -7.08759603 45.98558924 -10.6953125 43.1875 C-15.88980669 36.80390472 -15.3311564 30.35339849 -15.33984375 22.4609375 C-15.36433594 21.29369141 -15.38882813 20.12644531 -15.4140625 18.92382812 C-15.45125295 8.04562245 -15.45125295 8.04562245 -10.96484375 3.3984375 C-7.20018055 0.70661627 -4.60553953 0.01520577 0 0 Z " fill="#FCFCFC" transform="translate(1016.96484375,416.6015625)"/>
<path d="M0 0 C1.17498047 -0.00386719 2.34996094 -0.00773437 3.56054688 -0.01171875 C4.77935547 -0.00011719 5.99816406 0.01148438 7.25390625 0.0234375 C8.46884766 0.01183594 9.68378906 0.00023437 10.93554688 -0.01171875 C12.69995117 -0.00591797 12.69995117 -0.00591797 14.5 0 C16.10186157 0.00507568 16.10186157 0.00507568 17.73608398 0.01025391 C22.81682151 0.65053073 25.95734304 2.33319912 29.16015625 6.3046875 C31.80075794 11.52014976 31.39655757 17.18765561 31.31640625 22.8984375 C31.331875 24.00058594 31.34734375 25.10273438 31.36328125 26.23828125 C31.33183622 32.78670895 30.98826773 37.22532927 26.81640625 42.3984375 C21.34941652 46.68266503 14.44285451 45.87634267 7.81640625 45.8359375 C6.07230469 45.8659082 6.07230469 45.8659082 4.29296875 45.89648438 C-6.51512681 45.89030125 -6.51512681 45.89030125 -11.18359375 41.3984375 C-14.01153937 37.49587254 -14.56750052 34.74916064 -14.58203125 29.9609375 C-14.58589844 28.73632812 -14.58976562 27.51171875 -14.59375 26.25 C-14.58214844 24.97898437 -14.57054687 23.70796875 -14.55859375 22.3984375 C-14.57019531 21.12742187 -14.58179688 19.85640625 -14.59375 18.546875 C-14.58988281 17.32226562 -14.58601563 16.09765625 -14.58203125 14.8359375 C-14.57864746 13.72089844 -14.57526367 12.60585938 -14.57177734 11.45703125 C-13.99200962 6.88889919 -12.50817384 4.42746407 -8.88256836 1.61083984 C-5.72254894 0.19133225 -3.45741395 0.0109668 0 0 Z " fill="#FCFCFC" transform="translate(1093.18359375,294.6015625)"/>
<path d="M0 0 C1.17626953 -0.020625 2.35253906 -0.04125 3.56445312 -0.0625 C14.94153756 -0.11395092 14.94153756 -0.11395092 19.1875 3.25 C24.05709721 9.28830054 23.79318352 15.22004932 23.6875 22.75 C23.70296875 23.85214844 23.7184375 24.95429688 23.734375 26.08984375 C23.70292997 32.63827145 23.35936148 37.07689177 19.1875 42.25 C13.72051027 46.53422753 6.81394826 45.72790517 0.1875 45.6875 C-1.55660156 45.7174707 -1.55660156 45.7174707 -3.3359375 45.74804688 C-14.14403306 45.74186375 -14.14403306 45.74186375 -18.8125 41.25 C-23.0526587 35.36320259 -22.36426514 29.38128417 -22.375 22.375 C-22.41173828 21.12074219 -22.44847656 19.86648437 -22.48632812 18.57421875 C-22.53544584 8.25949839 -22.53544584 8.25949839 -18.96484375 3.9296875 C-13.77637157 -1.19490915 -6.80589294 0.02954267 0 0 Z " fill="#FCFCFC" transform="translate(870.8125,233.75)"/>
<path d="M0 0 C1.22396484 -0.02449219 2.44792969 -0.04898437 3.70898438 -0.07421875 C14.9889829 -0.11102136 14.9889829 -0.11102136 19.6875 4.375 C22.81855642 7.74610879 23.07212165 10.13164277 23.0859375 14.6796875 C23.09173828 16.51466797 23.09173828 16.51466797 23.09765625 18.38671875 C23.08605469 19.66160156 23.07445312 20.93648438 23.0625 22.25 C23.07410156 23.51714844 23.08570313 24.78429687 23.09765625 26.08984375 C23.09378906 27.31574219 23.08992187 28.54164063 23.0859375 29.8046875 C23.08255371 30.92085449 23.07916992 32.03702148 23.07568359 33.18701172 C22.61911346 36.93662982 21.78407386 39.22820256 19.6875 42.375 C13.52959548 46.44638184 7.31733827 45.85426157 0.1875 45.8125 C-1.02292969 45.83248047 -2.23335937 45.85246094 -3.48046875 45.87304688 C-14.70221074 45.8668743 -14.70221074 45.8668743 -19.3125 41.375 C-22.57170425 36.3806338 -21.72247586 30.27532514 -21.73803711 24.53051758 C-21.74994635 22.44688713 -21.79916443 20.36621014 -21.84960938 18.28320312 C-21.85669922 16.96384766 -21.86378906 15.64449219 -21.87109375 14.28515625 C-21.88454834 13.07996338 -21.89800293 11.87477051 -21.91186523 10.63305664 C-21.14221348 6.44934885 -19.54485523 5.04745716 -16.3125 2.375 C-11.37626947 -0.91582035 -5.80034097 0.00605148 0 0 Z " fill="#FDFDFD" transform="translate(947.3125,416.625)"/>
<path d="M0 0 C1.82917969 -0.02416992 1.82917969 -0.02416992 3.6953125 -0.04882812 C5.46648438 -0.04979492 5.46648438 -0.04979492 7.2734375 -0.05078125 C8.34770996 -0.05376221 9.42198242 -0.05674316 10.52880859 -0.05981445 C15.25406606 0.50839384 18.45293516 1.86481896 21.47509766 5.59765625 C22.84286375 8.82686198 23.01280549 11.24650116 23.0234375 14.75 C23.02923828 16.58691406 23.02923828 16.58691406 23.03515625 18.4609375 C23.02355469 19.73195313 23.01195312 21.00296875 23 22.3125 C23.01160156 23.58351563 23.02320313 24.85453125 23.03515625 26.1640625 C23.03128906 27.38867188 23.02742187 28.61328125 23.0234375 29.875 C23.02005371 30.99003906 23.01666992 32.10507812 23.01318359 33.25390625 C22.42782169 37.86611624 20.55035922 40.42214614 17.25 43.59765625 C12.30794318 46.62542871 6.20620808 45.84590768 0.625 45.75 C-0.53773438 45.75708984 -1.70046875 45.76417969 -2.8984375 45.77148438 C-13.8817863 45.68980043 -13.8817863 45.68980043 -18.375 42.3125 C-22.51218672 36.74495931 -21.86302672 31.07798071 -21.82104492 24.39257812 C-21.81252261 22.31800465 -21.84134248 20.24617775 -21.87304688 18.171875 C-21.87240234 16.85703125 -21.87175781 15.5421875 -21.87109375 14.1875 C-21.87294678 12.98867188 -21.8747998 11.78984375 -21.87670898 10.5546875 C-21.27404225 6.66008201 -20.15534885 5.06317629 -17.375 2.3125 C-12.39865665 -1.13091126 -5.78912504 -0.01520253 0 0 Z " fill="#FDFDFD" transform="translate(947.375,294.6875)"/>
<path d="M0 0 C1.74410156 -0.0299707 1.74410156 -0.0299707 3.5234375 -0.06054688 C9.94994711 -0.05687038 14.21096756 -0.04434122 19 4.4375 C22.13371138 7.80541507 22.38462656 10.19575638 22.3984375 14.7421875 C22.40423828 16.57716797 22.40423828 16.57716797 22.41015625 18.44921875 C22.39855469 19.72410156 22.38695312 20.99898438 22.375 22.3125 C22.38660156 23.57964844 22.39820313 24.84679687 22.41015625 26.15234375 C22.40628906 27.37824219 22.40242187 28.60414063 22.3984375 29.8671875 C22.39505371 30.98335449 22.39166992 32.09952148 22.38818359 33.24951172 C21.93161346 36.99912982 21.09657386 39.29070256 19 42.4375 C12.84209548 46.50888184 6.62983827 45.91676157 -0.5 45.875 C-1.71042969 45.89498047 -2.92085937 45.91496094 -4.16796875 45.93554688 C-15.38971074 45.9293743 -15.38971074 45.9293743 -20 41.4375 C-23.19415799 36.52309051 -22.33427602 30.66775118 -22.31567383 25.02026367 C-22.31251524 23.0097016 -22.33598616 21.0006146 -22.36132812 18.99023438 C-22.36197266 17.71599609 -22.36261719 16.44175781 -22.36328125 15.12890625 C-22.36626221 13.96560791 -22.36924316 12.80230957 -22.37231445 11.60375977 C-21.96041154 8.10082938 -21.08607475 6.25193093 -19 3.4375 C-13.40026542 -0.77151102 -6.69230302 -0.04080673 0 0 Z " fill="#FDFDFD" transform="translate(948,355.5625)"/>
<path d="M0 0 C1.17498047 -0.00386719 2.34996094 -0.00773437 3.56054688 -0.01171875 C4.77935547 -0.00011719 5.99816406 0.01148438 7.25390625 0.0234375 C8.46884766 0.01183594 9.68378906 0.00023437 10.93554688 -0.01171875 C12.69995117 -0.00591797 12.69995117 -0.00591797 14.5 0 C16.10186157 0.00507568 16.10186157 0.00507568 17.73608398 0.01025391 C22.19635682 0.57233949 25.40762762 2.0552829 28.66650391 5.16235352 C30.25521662 8.251742 30.20510491 10.71037873 30.21484375 14.17578125 C30.22064453 16.15288086 30.22064453 16.15288086 30.2265625 18.16992188 C30.22027832 18.85401123 30.21399414 19.53810059 30.20751953 20.24291992 C30.19148254 22.32602747 30.20736845 24.40718752 30.2265625 26.49023438 C30.22269531 27.80958984 30.21882813 29.12894531 30.21484375 30.48828125 C30.21145996 31.69347412 30.20807617 32.89866699 30.20458984 34.14038086 C29.78162963 37.69032049 28.93675266 39.55175288 26.81640625 42.3984375 C21.21667167 46.60744852 14.50870927 45.87674423 7.81640625 45.8359375 C6.07230469 45.8659082 6.07230469 45.8659082 4.29296875 45.89648438 C-6.51512681 45.89030125 -6.51512681 45.89030125 -11.18359375 41.3984375 C-14.01153937 37.49587254 -14.56750052 34.74916064 -14.58203125 29.9609375 C-14.58589844 28.73632812 -14.58976562 27.51171875 -14.59375 26.25 C-14.58214844 24.97898437 -14.57054687 23.70796875 -14.55859375 22.3984375 C-14.57019531 21.12742187 -14.58179688 19.85640625 -14.59375 18.546875 C-14.58988281 17.32226562 -14.58601563 16.09765625 -14.58203125 14.8359375 C-14.57864746 13.72089844 -14.57526367 12.60585938 -14.57177734 11.45703125 C-13.99200962 6.88889919 -12.50817384 4.42746407 -8.88256836 1.61083984 C-5.72254894 0.19133225 -3.45741395 0.0109668 0 0 Z " fill="#FDFDFD" transform="translate(1323.18359375,294.6015625)"/>
<path d="M0 0 C1.82917969 -0.02416992 1.82917969 -0.02416992 3.6953125 -0.04882812 C5.46648438 -0.04979492 5.46648438 -0.04979492 7.2734375 -0.05078125 C8.34770996 -0.05376221 9.42198242 -0.05674316 10.52880859 -0.05981445 C15.25406606 0.50839384 18.45293516 1.86481896 21.47509766 5.59765625 C22.84286375 8.82686198 23.01280549 11.24650116 23.0234375 14.75 C23.02923828 16.58691406 23.02923828 16.58691406 23.03515625 18.4609375 C23.02355469 19.73195312 23.01195312 21.00296875 23 22.3125 C23.01160156 23.58351563 23.02320313 24.85453125 23.03515625 26.1640625 C23.03128906 27.38867188 23.02742187 28.61328125 23.0234375 29.875 C23.02005371 30.99003906 23.01666992 32.10507812 23.01318359 33.25390625 C22.42782169 37.86611624 20.55035922 40.42214614 17.25 43.59765625 C12.30794318 46.62542871 6.20620808 45.84590768 0.625 45.75 C-0.53773438 45.75708984 -1.70046875 45.76417969 -2.8984375 45.77148438 C-13.8817863 45.68980043 -13.8817863 45.68980043 -18.375 42.3125 C-22.51218672 36.74495931 -21.86302672 31.07798071 -21.82104492 24.39257812 C-21.81252261 22.31800465 -21.84134248 20.24617775 -21.87304688 18.171875 C-21.87240234 16.85703125 -21.87175781 15.5421875 -21.87109375 14.1875 C-21.87294678 12.98867187 -21.8747998 11.78984375 -21.87670898 10.5546875 C-21.27404225 6.66008201 -20.15534885 5.06317629 -17.375 2.3125 C-12.39865665 -1.13091126 -5.78912504 -0.01520253 0 0 Z " fill="#FDFDFD" transform="translate(947.375,233.6875)"/>
<path d="M0 0 C1.17175781 -0.01611328 2.34351563 -0.03222656 3.55078125 -0.04882812 C14.67882988 -0.0551437 14.67882988 -0.0551437 19.125 3.3125 C22.03667607 7.25210985 22.50923951 10.11438945 22.5234375 14.96875 C22.52923828 16.87333984 22.52923828 16.87333984 22.53515625 18.81640625 C22.52355469 20.13511719 22.51195312 21.45382812 22.5 22.8125 C22.51160156 24.13121094 22.52320313 25.44992187 22.53515625 26.80859375 C22.53128906 28.07832031 22.52742188 29.34804688 22.5234375 30.65625 C22.52005371 31.81318359 22.51666992 32.97011719 22.51318359 34.16210938 C22.07148694 37.74679715 21.40289903 39.51577625 19.125 42.3125 C14.95825795 44.97959374 11.71331049 45.69539634 6.80859375 45.7109375 C5.63232422 45.71480469 4.45605469 45.71867187 3.24414062 45.72265625 C2.02919922 45.71105469 0.81425781 45.69945312 -0.4375 45.6875 C-2.26571289 45.70490234 -2.26571289 45.70490234 -4.13085938 45.72265625 C-5.89333008 45.71685547 -5.89333008 45.71685547 -7.69140625 45.7109375 C-9.29157593 45.70586182 -9.29157593 45.70586182 -10.92407227 45.70068359 C-14.39063671 45.2446699 -16.15027204 44.50326801 -18.875 42.3125 C-22.94906247 35.95821198 -22.38997993 29.62270697 -22.375 22.3125 C-22.40335938 21.054375 -22.43171875 19.79625 -22.4609375 18.5 C-22.48273071 8.21360446 -22.48273071 8.21360446 -19.59375 4.5625 C-13.35804643 -0.59808226 -7.85582578 -0.021464 0 0 Z " fill="#FDFDFD" transform="translate(1330.875,355.6875)"/>
<path d="M0 0 C1.22783203 -0.01611328 2.45566406 -0.03222656 3.72070312 -0.04882812 C4.90470703 -0.04947266 6.08871094 -0.05011719 7.30859375 -0.05078125 C8.38810303 -0.05376221 9.4676123 -0.05674316 10.57983398 -0.05981445 C15.19253743 0.51597115 17.60607506 2.35269438 20.84179688 5.59985352 C22.92610948 8.88572147 23.07800342 10.84540223 23.09375 14.71484375 C23.10148437 16.54499023 23.10148437 16.54499023 23.109375 18.41210938 C23.09390625 19.67861328 23.0784375 20.94511719 23.0625 22.25 C23.07796875 23.51263672 23.0934375 24.77527344 23.109375 26.07617188 C23.06004572 37.76104534 23.06004572 37.76104534 18.5625 42.3125 C14.7948812 45.00053007 12.20428921 45.69572812 7.59765625 45.7109375 C5.90286133 45.71673828 5.90286133 45.71673828 4.17382812 45.72265625 C3.00271484 45.71105469 1.83160156 45.69945312 0.625 45.6875 C-1.12586914 45.70490234 -1.12586914 45.70490234 -2.91210938 45.72265625 C-13.96802082 45.68485826 -13.96802082 45.68485826 -18.4375 42.3125 C-22.57413806 36.7442363 -21.92552976 31.0784648 -21.88354492 24.39257812 C-21.87502261 22.31800465 -21.90384248 20.24617775 -21.93554688 18.171875 C-21.93490234 16.85703125 -21.93425781 15.5421875 -21.93359375 14.1875 C-21.93544678 12.98867187 -21.9372998 11.78984375 -21.93920898 10.5546875 C-21.33654225 6.66008201 -20.21784885 5.06317629 -17.4375 2.3125 C-12.45126622 -1.14181466 -5.80160096 -0.01517949 0 0 Z " fill="#FDFDFD" transform="translate(1177.4375,233.6875)"/>
<path d="M0 0 C1.17626953 -0.020625 2.35253906 -0.04125 3.56445312 -0.0625 C14.60580688 -0.11243263 14.60580688 -0.11243263 19.1875 3.25 C22.4905437 6.67926201 22.57280593 9.35469293 22.5859375 14.02734375 C22.59173828 16.00444336 22.59173828 16.00444336 22.59765625 18.02148438 C22.59137207 18.70557373 22.58508789 19.38966309 22.57861328 20.09448242 C22.56257629 22.17758997 22.5784622 24.25875002 22.59765625 26.34179688 C22.59378906 27.66115234 22.58992188 28.98050781 22.5859375 30.33984375 C22.58255371 31.54503662 22.57916992 32.75022949 22.57568359 33.99194336 C22.15272338 37.54188299 21.30784641 39.40331538 19.1875 42.25 C13.58776542 46.45901102 6.87980302 45.72830673 0.1875 45.6875 C-1.55660156 45.7174707 -1.55660156 45.7174707 -3.3359375 45.74804688 C-14.14403306 45.74186375 -14.14403306 45.74186375 -18.8125 41.25 C-23.0526587 35.36320259 -22.36426514 29.38128417 -22.375 22.375 C-22.41173828 21.12074219 -22.44847656 19.86648437 -22.48632812 18.57421875 C-22.53544584 8.25949839 -22.53544584 8.25949839 -18.96484375 3.9296875 C-13.77637157 -1.19490915 -6.80589294 0.02954267 0 0 Z " fill="#FDFDFD" transform="translate(1100.8125,233.75)"/>
<path d="M0 0 C1.17626953 -0.020625 2.35253906 -0.04125 3.56445312 -0.0625 C14.94153756 -0.11395092 14.94153756 -0.11395092 19.1875 3.25 C24.05709721 9.28830054 23.79318352 15.22004932 23.6875 22.75 C23.70296875 23.85214844 23.7184375 24.95429688 23.734375 26.08984375 C23.70288758 32.64709912 23.27263527 37.01412241 19.1875 42.25 C14.26851921 45.56759872 8.0363766 44.6219465 2.34301758 44.62060547 C0.2597481 44.62497953 -1.82140176 44.66132556 -3.90429688 44.69921875 C-5.22365234 44.70308594 -6.54300781 44.70695312 -7.90234375 44.7109375 C-9.10753662 44.71915527 -10.31272949 44.72737305 -11.55444336 44.73583984 C-15.46872111 44.15214462 -17.05357892 43.04424068 -19.8125 40.25 C-23.31794572 35.18931196 -22.26466928 28.32964733 -22.3125 22.4375 C-22.35375 21.17873047 -22.395 19.91996094 -22.4375 18.62304688 C-22.52510916 8.23588608 -22.52510916 8.23588608 -18.96875 3.92578125 C-13.77532455 -1.19245918 -6.8059812 0.02954305 0 0 Z " fill="#FCFCFC" transform="translate(870.8125,172.75)"/>
<path d="M0 0 C1.22783203 -0.00386719 2.45566406 -0.00773437 3.72070312 -0.01171875 C5.00009766 -0.00011719 6.27949219 0.01148437 7.59765625 0.0234375 C8.87318359 0.01183594 10.14871094 0.00023438 11.46289062 -0.01171875 C12.69201172 -0.00785156 13.92113281 -0.00398438 15.1875 0 C16.30890381 0.00338379 17.43030762 0.00676758 18.58569336 0.01025391 C23.22603065 0.59614577 25.77447239 2.46430597 28.9453125 5.80859375 C31.48339976 11.12181059 31.20219736 16.02547521 31.09765625 21.8359375 C31.10474609 22.94259766 31.11183594 24.04925781 31.11914062 25.18945312 C31.07176126 31.28681271 30.89308623 36.14227344 27.66015625 41.3984375 C23.75336794 44.34601436 20.8437341 44.78271951 16.00390625 44.796875 C14.09931641 44.80267578 14.09931641 44.80267578 12.15625 44.80859375 C10.83753906 44.79699219 9.51882813 44.78539062 8.16015625 44.7734375 C6.84144531 44.78503906 5.52273438 44.79664063 4.1640625 44.80859375 C2.89433594 44.80472656 1.62460938 44.80085938 0.31640625 44.796875 C-0.84052734 44.79349121 -1.99746094 44.79010742 -3.18945312 44.78662109 C-6.67353112 44.35732134 -8.53573812 43.47197274 -11.33984375 41.3984375 C-15.54885477 35.79870292 -14.81815048 29.09074052 -14.77734375 22.3984375 C-14.79732422 21.23570312 -14.81730469 20.07296875 -14.83789062 18.875 C-14.83421413 12.44849039 -14.82168497 8.18746994 -10.33984375 3.3984375 C-6.96454421 0.25389534 -4.55785908 0.013767 0 0 Z " fill="#FDFDFD" transform="translate(1246.33984375,111.6015625)"/>
<path d="M0 0 C1.22783203 -0.00386719 2.45566406 -0.00773437 3.72070312 -0.01171875 C5.00009766 -0.00011719 6.27949219 0.01148438 7.59765625 0.0234375 C8.87318359 0.01183594 10.14871094 0.00023437 11.46289062 -0.01171875 C12.69201172 -0.00785156 13.92113281 -0.00398438 15.1875 0 C16.30890381 0.00338379 17.43030762 0.00676758 18.58569336 0.01025391 C23.2087198 0.59396009 25.76254263 2.46553309 28.9453125 5.7734375 C31.97308496 10.71549432 31.19356393 16.81722942 31.09765625 22.3984375 C31.10474609 23.56117187 31.11183594 24.72390625 31.11914062 25.921875 C31.03745668 36.9052238 31.03745668 36.9052238 27.66015625 41.3984375 C23.72140991 44.31099873 20.85781057 44.78267834 16.00390625 44.796875 C14.09931641 44.80267578 14.09931641 44.80267578 12.15625 44.80859375 C10.83753906 44.79699219 9.51882813 44.78539062 8.16015625 44.7734375 C6.84144531 44.78503906 5.52273438 44.79664063 4.1640625 44.80859375 C2.89433594 44.80472656 1.62460937 44.80085938 0.31640625 44.796875 C-0.84052734 44.79349121 -1.99746094 44.79010742 -3.18945312 44.78662109 C-6.67353112 44.35732134 -8.53573812 43.47197274 -11.33984375 41.3984375 C-15.54885477 35.79870292 -14.81815048 29.09074052 -14.77734375 22.3984375 C-14.79732422 21.23570313 -14.81730469 20.07296875 -14.83789062 18.875 C-14.83421413 12.44849039 -14.82168497 8.18746994 -10.33984375 3.3984375 C-6.96454421 0.25389534 -4.55785908 0.013767 0 0 Z " fill="#FDFDFD" transform="translate(1016.33984375,50.6015625)"/>
<path d="M0 0 C1.27552734 -0.01611328 2.55105469 -0.03222656 3.86523438 -0.04882812 C5.09435547 -0.04947266 6.32347656 -0.05011719 7.58984375 -0.05078125 C9.27194946 -0.05525269 9.27194946 -0.05525269 10.98803711 -0.05981445 C15.32076838 0.46487507 17.77962115 2.04191599 20.84570312 5.07861328 C23.31754574 9.61660684 22.58018002 15.05164254 22.56347656 20.10205078 C22.56250589 22.17492375 22.60410417 24.24406915 22.6484375 26.31640625 C22.67031161 37.48314103 22.67031161 37.48314103 19.65625 41.1953125 C14.43398931 45.45806144 8.81931712 44.57088368 2.36889648 44.60766602 C0.26804948 44.62485234 -1.83121201 44.66873599 -3.93164062 44.71289062 C-5.27342595 44.72302052 -6.61522464 44.7315357 -7.95703125 44.73828125 C-9.78391479 44.76015503 -9.78391479 44.76015503 -11.64770508 44.7824707 C-15.61618542 44.21554494 -17.18215451 43.19016869 -19.9375 40.3125 C-23.04656728 34.62273057 -22.30582792 28.18345628 -22.3125 21.875 C-22.34923828 20.05258789 -22.34923828 20.05258789 -22.38671875 18.19335938 C-22.42384378 6.9011639 -22.42384378 6.9011639 -17.9375 2.3125 C-12.65889194 -1.09023908 -6.03900347 -0.0152116 0 0 Z " fill="#FEFEFE" transform="translate(870.9375,111.6875)"/>
<path d="M0 0 C1.26714844 -0.02449219 2.53429688 -0.04898438 3.83984375 -0.07421875 C15.47712368 -0.11092941 15.47712368 -0.11092941 20.125 4.375 C23.32659846 9.17739769 22.53527529 14.43759509 22.55053711 20.08911133 C22.56240389 22.17064193 22.61156014 24.24917589 22.66210938 26.33007812 C22.79746609 37.47725048 22.79746609 37.47725048 19.72265625 41.26171875 C14.49354969 45.51577386 8.88322482 44.63337565 2.43139648 44.67016602 C0.33054948 44.68735234 -1.76871201 44.73123599 -3.86914062 44.77539062 C-5.21092595 44.78552052 -6.55272464 44.7940357 -7.89453125 44.80078125 C-9.72141479 44.82265503 -9.72141479 44.82265503 -11.58520508 44.8449707 C-15.52988533 44.28144495 -17.10205186 43.1918699 -19.875 40.375 C-23.39904485 35.31076769 -22.24403792 28.39649507 -22.25 22.5 C-22.27449219 21.23285156 -22.29898437 19.96570313 -22.32421875 18.66015625 C-22.36133968 6.89282276 -22.36133968 6.89282276 -17.875 2.375 C-12.59821218 -1.00899487 -6.03411244 0.00610123 0 0 Z " fill="#FEFEFE" transform="translate(1330.875,50.625)"/>
<path d="M0 0 C1.82917969 -0.02416992 1.82917969 -0.02416992 3.6953125 -0.04882812 C5.46648438 -0.04979492 5.46648438 -0.04979492 7.2734375 -0.05078125 C8.34770996 -0.05376221 9.42198242 -0.05674316 10.52880859 -0.05981445 C15.25406606 0.50839384 18.45293516 1.86481896 21.47509766 5.59765625 C22.84286375 8.82686198 23.01280549 11.24650116 23.0234375 14.75 C23.02923828 16.58691406 23.02923828 16.58691406 23.03515625 18.4609375 C23.02355469 19.73195312 23.01195312 21.00296875 23 22.3125 C23.01160156 23.58351562 23.02320313 24.85453125 23.03515625 26.1640625 C23.03128906 27.38867188 23.02742187 28.61328125 23.0234375 29.875 C23.02005371 30.99003906 23.01666992 32.10507813 23.01318359 33.25390625 C22.46565977 37.56798072 20.88607312 40.03922407 17.85888672 43.09570312 C13.32089316 45.56754574 7.88585746 44.83018002 2.83544922 44.81347656 C0.76257625 44.81250589 -1.30656915 44.85410417 -3.37890625 44.8984375 C-14.54564103 44.92031161 -14.54564103 44.92031161 -18.2578125 41.90625 C-22.48754299 36.72443996 -21.63171812 31.59327658 -21.67016602 25.10107422 C-21.68732051 23.08360916 -21.73119871 21.06780907 -21.77539062 19.05078125 C-21.78376953 17.77074219 -21.79214844 16.49070313 -21.80078125 15.171875 C-21.81536377 14.00108398 -21.82994629 12.83029297 -21.8449707 11.62402344 C-21.26920751 7.56706139 -19.96803109 5.45705203 -17.375 2.3125 C-12.52543049 -1.20530603 -5.70891968 -0.01499191 0 0 Z " fill="#FEFEFE" transform="translate(947.375,172.6875)"/>
<path d="M0 0 C1.82917969 -0.02416992 1.82917969 -0.02416992 3.6953125 -0.04882812 C5.46648437 -0.04979492 5.46648437 -0.04979492 7.2734375 -0.05078125 C8.34770996 -0.05376221 9.42198242 -0.05674316 10.52880859 -0.05981445 C15.25422875 0.50841341 18.45424221 1.8633218 21.47290039 5.59985352 C23.71839543 10.88692606 23.09417343 16.5919744 23.0625 22.25 C23.0924707 24.14395508 23.0924707 24.14395508 23.12304688 26.07617188 C23.11687427 37.77325975 23.11687427 37.77325975 18.625 42.3125 C13.71515208 45.4809479 7.90324569 44.72216185 2.26269531 44.73803711 C0.26336126 44.74992058 -1.73563015 44.79964075 -3.734375 44.84960938 C-14.53344745 44.90984761 -14.53344745 44.90984761 -18.2265625 41.91015625 C-22.53432576 36.70167886 -21.6333185 31.08074824 -21.67016602 24.61889648 C-21.68735234 22.51804948 -21.73123599 20.41878799 -21.77539062 18.31835938 C-21.78552052 16.97657405 -21.7940357 15.63477536 -21.80078125 14.29296875 C-21.81536377 13.07504639 -21.82994629 11.85712402 -21.8449707 10.60229492 C-21.28144495 6.65761467 -20.1918699 5.08544814 -17.375 2.3125 C-12.39865665 -1.13091126 -5.78912504 -0.01520253 0 0 Z " fill="#FEFEFE" transform="translate(1177.375,111.6875)"/>
<path d="M0 0 C1.26714844 -0.02449219 2.53429688 -0.04898438 3.83984375 -0.07421875 C15.47712368 -0.11092941 15.47712368 -0.11092941 20.125 4.375 C23.32659846 9.17739769 22.53527529 14.43759509 22.55053711 20.08911133 C22.56240389 22.17064193 22.61156014 24.24917589 22.66210938 26.33007812 C22.79746609 37.47725048 22.79746609 37.47725048 19.72265625 41.26171875 C14.49354969 45.51577386 8.88322482 44.63337565 2.43139648 44.67016602 C0.33054948 44.68735234 -1.76871201 44.73123599 -3.86914062 44.77539062 C-5.21092595 44.78552052 -6.55272464 44.7940357 -7.89453125 44.80078125 C-9.72141479 44.82265503 -9.72141479 44.82265503 -11.58520508 44.8449707 C-15.55368542 44.27804494 -17.11965451 43.25266869 -19.875 40.375 C-22.98406728 34.68523057 -22.24332792 28.24595628 -22.25 21.9375 C-22.28673828 20.11508789 -22.28673828 20.11508789 -22.32421875 18.25585938 C-22.36134378 6.9636639 -22.36134378 6.9636639 -17.875 2.375 C-12.6031646 -1.01245663 -6.03062971 0.0060977 0 0 Z " fill="#FEFEFE" transform="translate(1100.875,111.625)"/>
<path d="M0 0 C1.27552734 -0.01611328 2.55105469 -0.03222656 3.86523438 -0.04882812 C5.09435547 -0.04947266 6.32347656 -0.05011719 7.58984375 -0.05078125 C9.27194946 -0.05525269 9.27194946 -0.05525269 10.98803711 -0.05981445 C14.506401 0.36625598 16.28106624 1.13191067 19.0625 3.3125 C23.48903172 8.98352088 22.53848052 15.37597985 22.5 22.25 C22.5299707 24.14395508 22.5299707 24.14395508 22.56054688 26.07617188 C22.55437427 37.77325975 22.55437427 37.77325975 18.0625 42.3125 C13.15265208 45.4809479 7.34074569 44.72216185 1.70019531 44.73803711 C-0.29913874 44.74992058 -2.29813015 44.79964075 -4.296875 44.84960938 C-15.09594745 44.90984761 -15.09594745 44.90984761 -18.7890625 41.91015625 C-23.09682576 36.70167886 -22.1958185 31.08074824 -22.23266602 24.61889648 C-22.24985234 22.51804948 -22.29373599 20.41878799 -22.33789062 18.31835938 C-22.34802052 16.97657405 -22.3565357 15.63477536 -22.36328125 14.29296875 C-22.37786377 13.07504639 -22.39244629 11.85712402 -22.4074707 10.60229492 C-21.84394495 6.65761467 -20.7543699 5.08544814 -17.9375 2.3125 C-12.86669498 -1.22631151 -5.90469072 -0.01487328 0 0 Z " fill="#FEFEFE" transform="translate(947.9375,50.6875)"/>
<path d="M0 0 C1.17626953 -0.020625 2.35253906 -0.04125 3.56445312 -0.0625 C14.60580688 -0.11243263 14.60580688 -0.11243263 19.1875 3.25 C23.7204405 7.97508958 22.70891394 13.86016381 22.68847656 20.03955078 C22.68750589 22.11242375 22.72910417 24.18156915 22.7734375 26.25390625 C22.79531161 37.42064103 22.79531161 37.42064103 19.78125 41.1328125 C14.55898931 45.39556144 8.94431712 44.50838368 2.49389648 44.54516602 C0.39304948 44.56235234 -1.70621201 44.60623599 -3.80664062 44.65039062 C-5.14842595 44.66052052 -6.49022464 44.6690357 -7.83203125 44.67578125 C-9.65891479 44.69765503 -9.65891479 44.69765503 -11.52270508 44.7199707 C-15.46738533 44.15644495 -17.03955186 43.0668699 -19.8125 40.25 C-23.31794572 35.18931196 -22.26466928 28.32964733 -22.3125 22.4375 C-22.35375 21.17873047 -22.395 19.91996094 -22.4375 18.62304688 C-22.52510916 8.23588608 -22.52510916 8.23588608 -18.96875 3.92578125 C-13.77532455 -1.19245918 -6.8059812 0.02954305 0 0 Z " fill="#FEFEFE" transform="translate(1100.8125,172.75)"/>
<path d="M0 0 C14.85 0 29.7 0 45 0 C45.0825 4.00125 45.165 8.0025 45.25 12.125 C45.28641602 13.37555176 45.32283203 14.62610352 45.36035156 15.91455078 C45.46476997 26.36818081 45.46476997 26.36818081 41 31 C35.19255456 35.17294322 29.46805717 34.47766982 22.5625 34.4375 C21.34755859 34.45748047 20.13261719 34.47746094 18.88085938 34.49804688 C7.59936286 34.49186523 7.59936286 34.49186523 3 30 C0.28679364 26.21583397 -0.3642334 23.67517105 -0.29296875 19.04296875 C-0.28547607 18.04031982 -0.2779834 17.0376709 -0.27026367 16.00463867 C-0.24295166 14.74498291 -0.21563965 13.48532715 -0.1875 12.1875 C-0.125625 8.165625 -0.06375 4.14375 0 0 Z " fill="#FDFDFD" transform="translate(1002,0)"/>
<path d="M0 0 C14.52 0 29.04 0 44 0 C44.0825 4.351875 44.165 8.70375 44.25 13.1875 C44.28641602 14.55156982 44.32283203 15.91563965 44.36035156 17.32104492 C44.3703418 18.40490479 44.38033203 19.48876465 44.390625 20.60546875 C44.41157227 21.71043701 44.43251953 22.81540527 44.45410156 23.95385742 C43.88966958 27.74010359 42.68597233 29.31432232 40 32 C34.92919498 35.53881151 27.96719072 34.32737328 22.0625 34.3125 C20.78697266 34.32861328 19.51144531 34.34472656 18.19726562 34.36132812 C16.96814453 34.36197266 15.73902344 34.36261719 14.47265625 34.36328125 C12.79055054 34.36775269 12.79055054 34.36775269 11.07446289 34.37231445 C7.62754616 33.9548962 5.77799918 33.04602527 3 31 C-1.22482538 25.40966707 -0.33317065 18.79491118 -0.1875 12.125 C-0.125625 8.12375 -0.06375 4.1225 0 0 Z " fill="#FEFEFE" transform="translate(849,0)"/>
<path d="M0 0 C14.52 0 29.04 0 44 0 C44.0825 4.351875 44.165 8.70375 44.25 13.1875 C44.28641602 14.55156982 44.32283203 15.91563965 44.36035156 17.32104492 C44.3703418 18.40490479 44.38033203 19.48876465 44.390625 20.60546875 C44.41157227 21.71043701 44.43251953 22.81540527 44.45410156 23.95385742 C43.88966958 27.74010359 42.68597233 29.31432232 40 32 C34.92919498 35.53881151 27.96719072 34.32737328 22.0625 34.3125 C20.78697266 34.32861328 19.51144531 34.34472656 18.19726562 34.36132812 C16.96814453 34.36197266 15.73902344 34.36261719 14.47265625 34.36328125 C12.79055054 34.36775269 12.79055054 34.36775269 11.07446289 34.37231445 C7.62754616 33.9548962 5.77799918 33.04602527 3 31 C-1.22482538 25.40966707 -0.33317065 18.79491118 -0.1875 12.125 C-0.125625 8.12375 -0.06375 4.1225 0 0 Z " fill="#FEFEFE" transform="translate(1309,0)"/>
<path d="M0 0 C14.52 0 29.04 0 44 0 C44.0825 4.351875 44.165 8.70375 44.25 13.1875 C44.28641602 14.55156982 44.32283203 15.91563965 44.36035156 17.32104492 C44.3703418 18.40490479 44.38033203 19.48876465 44.390625 20.60546875 C44.41157227 21.71043701 44.43251953 22.81540527 44.45410156 23.95385742 C43.88966958 27.74010359 42.68597233 29.31432232 40 32 C34.92919498 35.53881151 27.96719072 34.32737328 22.0625 34.3125 C20.78697266 34.32861328 19.51144531 34.34472656 18.19726562 34.36132812 C16.96814453 34.36197266 15.73902344 34.36261719 14.47265625 34.36328125 C12.79055054 34.36775269 12.79055054 34.36775269 11.07446289 34.37231445 C7.62754616 33.9548962 5.77799918 33.04602527 3 31 C-1.22482538 25.40966707 -0.33317065 18.79491118 -0.1875 12.125 C-0.125625 8.12375 -0.06375 4.1225 0 0 Z " fill="#FEFEFE" transform="translate(1079,0)"/>
<path d="M0 0 C14.52 0 29.04 0 44 0 C44.061875 4.00125 44.12375 8.0025 44.1875 12.125 C44.22846802 14.00082764 44.22846802 14.00082764 44.27026367 15.91455078 C44.35117145 26.71443483 44.35117145 26.71443483 41 31 C34.56579267 34.83099751 28.79645454 34.48023749 21.5 34.4375 C20.28957031 34.45748047 19.07914063 34.47746094 17.83203125 34.49804688 C6.74375672 34.49194771 6.74375672 34.49194771 2 30 C-0.36008817 26.45986775 -0.23463644 24.98878045 -0.1953125 20.80078125 C-0.18781982 19.16749878 -0.18781982 19.16749878 -0.18017578 17.5012207 C-0.16196777 16.11894287 -0.14375977 14.73666504 -0.125 13.3125 C-0.08375 8.919375 -0.0425 4.52625 0 0 Z " fill="#FEFEFE" transform="translate(1156,0)"/>
<path d="M0 0 C14.52 0 29.04 0 44 0 C44.061875 4.186875 44.12375 8.37375 44.1875 12.6875 C44.22846802 14.65529419 44.22846802 14.65529419 44.27026367 16.6628418 C44.27775635 17.70609619 44.28524902 18.74935059 44.29296875 19.82421875 C44.3086792 20.88729248 44.32438965 21.95036621 44.34057617 23.0456543 C43.93755732 26.54166231 43.20884366 28.26196329 41 31 C34.74770172 34.99397775 28.68590003 34.47958994 21.5 34.4375 C20.28957031 34.45748047 19.07914063 34.47746094 17.83203125 34.49804688 C6.61028926 34.4918743 6.61028926 34.4918743 2 30 C-0.16806802 26.62614901 -0.23417336 23.88568235 -0.1953125 19.921875 C-0.19031738 18.87612305 -0.18532227 17.83037109 -0.18017578 16.75292969 C-0.16196777 15.43196289 -0.14375977 14.11099609 -0.125 12.75 C-0.08375 8.5425 -0.0425 4.335 0 0 Z " fill="#FEFEFE" transform="translate(926,0)"/>
<path d="M0 0 C2.31 0 4.62 0 7 0 C6.67 2.64 6.34 5.28 6 8 C3.36 8 0.72 8 -2 8 C-2 11.3 -2 14.6 -2 18 C-3.32 18.33 -4.64 18.66 -6 19 C-6 19.66 -6 20.32 -6 21 C-6.66 21 -7.32 21 -8 21 C-8 21.66 -8 22.32 -8 23 C-9.32 23 -10.64 23 -12 23 C-12 21.68 -12 20.36 -12 19 C-12.66 19 -13.32 19 -14 19 C-14 17.68 -14 16.36 -14 15 C-14.66 15 -15.32 15 -16 15 C-16 13.68 -16 12.36 -16 11 C-17.32 10.67 -18.64 10.34 -20 10 C-20 9.01 -20 8.02 -20 7 C-17.36 6.67 -14.72 6.34 -12 6 C-12 5.34 -12 4.68 -12 4 C-10.02 4 -8.04 4 -6 4 C-6 3.34 -6 2.68 -6 2 C-4.02 2 -2.04 2 0 2 C0 1.34 0 0.68 0 0 Z " fill="#0E0E0E" transform="translate(132,25)"/>
<path d="M0 0 C1.32 0 2.64 0 4 0 C4 0.66 4 1.32 4 2 C4.66 2 5.32 2 6 2 C6 3.32 6 4.64 6 6 C6.66 6 7.32 6 8 6 C8 6.66 8 7.32 8 8 C8.66 8 9.32 8 10 8 C10 8.66 10 9.32 10 10 C10.66 10 11.32 10 12 10 C12 10.66 12 11.32 12 12 C12.66 12 13.32 12 14 12 C14 13.32 14 14.64 14 16 C12.68 16 11.36 16 10 16 C10 16.66 10 17.32 10 18 C8.68 18 7.36 18 6 18 C6 18.66 6 19.32 6 20 C4.02 20 2.04 20 0 20 C0 20.66 0 21.32 0 22 C-4.96073422 23.32286246 -9.91111512 23.08893197 -15 23 C-14.67 21.35 -14.34 19.7 -14 18 C-11.03 18 -8.06 18 -5 18 C-5 17.34 -5 16.68 -5 16 C-4.34 16 -3.68 16 -3 16 C-3 15.34 -3 14.68 -3 14 C-2.34 14 -1.68 14 -1 14 C-1 11.69 -1 9.38 -1 7 C-1.66 6.67 -2.32 6.34 -3 6 C-2.67 5.34 -2.34 4.68 -2 4 C-1.34 4 -0.68 4 0 4 C0 2.68 0 1.36 0 0 Z " fill="#232323" transform="translate(29,90)"/>
<path d="M0 0 C0 0.99 0 1.98 0 3 C-0.66 3 -1.32 3 -2 3 C-2 3.66 -2 4.32 -2 5 C-3.32 5 -4.64 5 -6 5 C-6 5.66 -6 6.32 -6 7 C-7.32 7 -8.64 7 -10 7 C-10 7.66 -10 8.32 -10 9 C-11.32 9 -12.64 9 -14 9 C-14 9.66 -14 10.32 -14 11 C-14.66 11 -15.32 11 -16 11 C-16 11.66 -16 12.32 -16 13 C-16.66 13 -17.32 13 -18 13 C-18 13.66 -18 14.32 -18 15 C-18.66 15 -19.32 15 -20 15 C-20 15.66 -20 16.32 -20 17 C-20.66 17 -21.32 17 -22 17 C-22 18.32 -22 19.64 -22 21 C-23.32 21 -24.64 21 -26 21 C-26 18.69 -26 16.38 -26 14 C-25.34 14 -24.68 14 -24 14 C-24 13.34 -24 12.68 -24 12 C-23.34 12 -22.68 12 -22 12 C-22 11.34 -22 10.68 -22 10 C-21.34 10 -20.68 10 -20 10 C-20 9.34 -20 8.68 -20 8 C-19.34 8 -18.68 8 -18 8 C-18 7.34 -18 6.68 -18 6 C-16.68 6 -15.36 6 -14 6 C-14 5.34 -14 4.68 -14 4 C-13.34 4 -12.68 4 -12 4 C-12 3.34 -12 2.68 -12 2 C-10.68 2 -9.36 2 -8 2 C-8 1.34 -8 0.68 -8 0 C-4.94736336 -0.98120464 -3.05263664 -0.98120464 0 0 Z " fill="#EEEEEE" transform="translate(65,24)"/>
<path d="M0 0 C-1.98 0.33 -3.96 0.66 -6 1 C-6 1.66 -6 2.32 -6 3 C-7.32 3 -8.64 3 -10 3 C-10 3.66 -10 4.32 -10 5 C-10.66 5 -11.32 5 -12 5 C-12 5.66 -12 6.32 -12 7 C-13.32 7 -14.64 7 -16 7 C-16 7.66 -16 8.32 -16 9 C-16.66 9 -17.32 9 -18 9 C-18 9.66 -18 10.32 -18 11 C-18.66 11 -19.32 11 -20 11 C-20 11.66 -20 12.32 -20 13 C-21.65 13.33 -23.3 13.66 -25 14 C-25.33 14.99 -25.66 15.98 -26 17 C-26 15.68 -26 14.36 -26 13 C-25.34 13 -24.68 13 -24 13 C-24 12.34 -24 11.68 -24 11 C-23.34 11 -22.68 11 -22 11 C-22 10.34 -22 9.68 -22 9 C-20.68 8.67 -19.36 8.34 -18 8 C-18 7.34 -18 6.68 -18 6 C-17.34 6 -16.68 6 -16 6 C-16 5.34 -16 4.68 -16 4 C-14.68 4 -13.36 4 -12 4 C-12 3.34 -12 2.68 -12 2 C-10.68 2 -9.36 2 -8 2 C-8 1.34 -8 0.68 -8 0 C-4.94736336 -0.98120464 -3.05263664 -0.98120464 0 0 Z " fill="#131313" transform="translate(63,23)"/>
<path d="M0 0 C0.66 0 1.32 0 2 0 C2 0.66 2 1.32 2 2 C2.66 2 3.32 2 4 2 C3.125 9.875 3.125 9.875 2 11 C0.33382885 11.04063832 -1.33388095 11.042721 -3 11 C-2.67 8.03 -2.34 5.06 -2 2 C-1.34 2 -0.68 2 0 2 C0 1.34 0 0.68 0 0 Z " fill="#E0E0E0" transform="translate(35,48)"/>
<path d="M0 0 C0.66 0 1.32 0 2 0 C2 1.32 2 2.64 2 4 C0.35 4.33 -1.3 4.66 -3 5 C-3.33 5.99 -3.66 6.98 -4 8 C-4 6.68 -4 5.36 -4 4 C-3.34 4 -2.68 4 -2 4 C-2 3.34 -2 2.68 -2 2 C-1.34 2 -0.68 2 0 2 C0 1.34 0 0.68 0 0 Z " fill="#474747" transform="translate(41,32)"/>
</svg>
